<?xml version="1.0" encoding="UTF-8" standalone="no"?>
<!-- Created with Inkscape (http://www.inkscape.org/) -->

<svg
   version="1.1"
   id="svg1"
   width="64.087997"
   height="64"
   viewBox="0 0 64.087998 64"
   sodipodi:docname="icon_api.svg"
   inkscape:version="1.4 (e7c3feb1, 2024-10-09)"
   xmlns:inkscape="http://www.inkscape.org/namespaces/inkscape"
   xmlns:sodipodi="http://sodipodi.sourceforge.net/DTD/sodipodi-0.dtd"
   xmlns="http://www.w3.org/2000/svg"
   xmlns:svg="http://www.w3.org/2000/svg">
  <sodipodi:namedview
     id="namedview1"
     pagecolor="#505050"
     bordercolor="#eeeeee"
     borderopacity="1"
     inkscape:showpageshadow="0"
     inkscape:pageopacity="0"
     inkscape:pagecheckerboard="0"
     inkscape:deskcolor="#505050"
     inkscape:zoom="4.0318863"
     inkscape:cx="119.42301"
     inkscape:cy="63.741877"
     inkscape:window-width="2560"
     inkscape:window-height="1387"
     inkscape:window-x="0"
     inkscape:window-y="84"
     inkscape:window-maximized="0"
     inkscape:current-layer="svg1" />
  <defs
     id="defs1" />
  <g
     id="g1"
     transform="matrix(1.7544456,0,0,1.7544456,-8.594013,-2.7923182)"
     style="fill:#ffffff;fill-opacity:1">
    <path
       style="fill:#ffffff;stroke:none;fill-opacity:1"
       d="m 10.420514,11.815384 c -5.3882491,0.469852 -7.1043491,7.727462 -3.9381451,11.404813 2.657963,3.087059 6.8507681,2.461854 10.5022481,2.461854 v 2.871795 H 13.37436 c -0.479442,7.71e-4 -1.100312,-0.0058 -1.34131,0.495916 -0.42903,0.893147 0.29338,2.277597 -0.219943,3.082304 -0.243212,0.38127 -0.879856,0.52804 -1.203799,0.866795 -1.0340521,1.081327 -1.1168171,2.854179 -0.161823,4.006205 1.809021,2.182249 5.42323,0.770072 5.303133,-2.05122 -0.0353,-0.829202 -0.406227,-1.65169 -1.064641,-2.171952 -0.283324,-0.223876 -0.784043,-0.340861 -0.981132,-0.649828 -0.267201,-0.418877 -0.08433,-1.368537 -0.08433,-1.855143 h 3.446154 c 0.498681,0 1.086901,0.09624 1.441342,-0.337132 0.287151,-0.351099 0.199683,-0.88114 0.199683,-1.303894 v -2.953846 h 3.446154 v 4.266667 c 0,0.621765 0.142142,1.442911 -0.02608,2.042418 -0.115253,0.410727 -0.896822,0.629126 -1.203419,0.91909 -0.790191,0.747319 -1.090848,1.887936 -0.847989,2.946184 0.689249,3.003383 5.494903,2.905667 5.837606,-0.246153 0.111869,-1.028852 -0.119396,-1.974094 -0.889521,-2.700031 -0.306643,-0.28905 -1.088391,-0.508934 -1.203483,-0.91909 -0.168226,-0.599504 -0.02608,-1.420653 -0.02608,-2.042418 v -4.266667 h 3.446154 v 3.035898 c 0,0.413163 -0.08098,0.945377 0.217663,1.280468 0.32641,0.366246 0.901999,0.278506 1.341311,0.278506 h 3.528206 c 0,0.486604 0.18287,1.436268 -0.08433,1.855143 -0.197171,0.309095 -0.697837,0.425691 -0.981135,0.649828 -0.643695,0.509269 -1.030066,1.359738 -1.064638,2.171952 -0.12008,2.820936 3.497556,4.22932 5.303132,2.05122 0.957112,-1.154583 0.872844,-2.924642 -0.161824,-4.006205 -0.322706,-0.337333 -1.13478,-0.549702 -1.262044,-1.007472 -0.243382,-0.875451 0.484996,-2.734423 -0.519975,-3.258752 -0.383576,-0.200125 -0.973415,-0.09674 -1.393289,-0.09674 h -3.2 v -2.953846 c 2.107562,0 4.411464,0.25624 6.482052,-0.181385 5.343469,-1.129367 7.724479,-7.481388 4.559733,-11.880154 C 39.262074,12.586663 38.18764,11.695555 37.00513,11.208548 36.449058,10.979534 35.341779,10.915537 34.912757,10.535423 34.557476,10.220645 34.422731,9.5178499 34.178222,9.1076919 33.675092,8.2636989 32.98792,7.5544313 32.164104,7.0189923 31.305,6.4606163 30.236455,6.0677633 29.210258,5.9970873 28.723381,5.9635573 27.863909,6.1834153 27.431847,5.9735373 26.861693,5.6965713 26.398269,4.6430083 25.927891,4.1878451 24.837361,3.1325916 23.512844,2.416914 22.071796,1.9713186 17.660294,0.60720836 12.853553,3.0474354 11.066478,7.2205123 10.416204,8.7389939 10.40723,10.210789 10.420514,11.815384 m 1.887179,1.312821 c -1.324118,-5.5462167 3.320208,-11.2209239 9.189744,-9.5648617 1.393941,0.3932943 2.713264,1.1449094 3.656283,2.262297 0.402892,0.477387 0.894844,1.783892 1.44837,2.0252606 0.427967,0.186619 1.321927,-0.1640346 1.787655,-0.2061396 0.889671,-0.08043 1.9624,0.2232796 2.707692,0.6997766 0.874109,0.558854 1.519221,1.291824 1.94359,2.2400771 0.186143,0.415935 0.217378,1.288972 0.622854,1.544286 0.454407,0.286122 1.333827,0.199198 1.864326,0.334347 1.125235,0.286661 2.183952,1.003042 2.915733,1.895726 2.503708,3.054217 1.284242,7.579382 -2.259323,9.164103 -1.545658,0.691236 -3.439749,0.435897 -5.08718,0.435897 H 21.66154 13.866668 c -1.565414,0 -3.171285,0.15795 -4.5948721,-0.628996 -3.033371,-1.676823 -3.761978,-6.002479 -1.22754,-8.471352 1.225393,-1.193693 2.6907751,-1.342982 4.2634371,-1.730421 m 1.066667,7.876923 c 0.382606,0 1.184612,0.15323 1.501361,-0.08433 0.572253,-0.429192 0.274584,-1.654269 0.900918,-2.046725 0.630644,-0.395155 2.272187,-0.08433 3.013106,-0.08433 0.07294,0.493925 0.35164,1.940906 0.843051,2.165876 0.363238,0.166291 0.977718,0.04951 1.372333,0.04951 -0.279139,-1.890132 -1.351653,-3.861494 -1.994492,-5.661539 -0.286511,-0.802273 -0.491346,-1.995793 -0.993542,-2.681608 -0.214471,-0.292889 -1.11608,-0.277592 -1.424312,-0.140678 -0.508916,0.226055 -0.774334,1.666993 -0.949161,2.165876 -0.729009,2.080291 -1.761212,4.174054 -2.269262,6.317949 m 8.369231,0 h 1.476923 v -2.789744 c 0.866286,0 1.778984,0.07765 2.625641,-0.144413 1.965122,-0.515415 2.615843,-3.206518 1.28585,-4.688953 -0.812948,-0.906127 -2.133551,-0.910224 -3.255081,-0.910224 -0.418296,0 -1.772451,-0.217613 -2.049002,0.131561 -0.322785,0.407549 -0.08433,1.73736 -0.08433,2.247926 v 6.153847 m 7.05641,-8.533334 v 8.533334 h 1.476924 v -6.153848 l -0.08433,-2.247926 -1.392594,-0.131561 m -5.579487,4.43077 v -3.117949 c 0.77202,0 1.768905,-0.160407 2.458246,0.264831 0.898938,0.554535 0.852401,2.157462 -0.07907,2.652737 -0.677136,0.360041 -1.638362,0.200381 -2.379172,0.200381 m -5.989744,-2.625641 1.066667,3.282051 h -2.215385 l 1.148718,-3.282051 m -4.758974,19.560494 c 1.648336,-0.368692 2.211532,2.159062 0.574359,2.536879 -1.617417,0.373258 -2.19219,-2.175012 -0.574359,-2.536879 m 10.25641,-0.0052 c 1.715913,-0.301435 2.130056,2.313151 0.410257,2.57037 -1.599636,0.239245 -2.028108,-2.286166 -0.410257,-2.57037 m 10.17436,0.0049 c 1.681761,-0.363702 2.17219,2.224509 0.492307,2.549857 -1.591233,0.308178 -2.071832,-2.208266 -0.492307,-2.549857 z"
       id="path1" />
  </g>
</svg>
