<?xml version="1.0" encoding="UTF-8" standalone="no"?>
<svg
   width="16"
   height="16"
   viewBox="0 0 16 16"
   fill="none"
   version="1.1"
   id="svg1"
   sodipodi:docname="express.svg"
   inkscape:version="1.4 (e7c3feb1, 2024-10-09)"
   xmlns:inkscape="http://www.inkscape.org/namespaces/inkscape"
   xmlns:sodipodi="http://sodipodi.sourceforge.net/DTD/sodipodi-0.dtd"
   xmlns="http://www.w3.org/2000/svg"
   xmlns:svg="http://www.w3.org/2000/svg">
  <defs
     id="defs1" />
  <sodipodi:namedview
     id="namedview1"
     pagecolor="#505050"
     bordercolor="#eeeeee"
     borderopacity="1"
     inkscape:showpageshadow="0"
     inkscape:pageopacity="0"
     inkscape:pagecheckerboard="0"
     inkscape:deskcolor="#505050"
     inkscape:zoom="3.4854282"
     inkscape:cx="54.082308"
     inkscape:cy="26.825972"
     inkscape:window-width="2560"
     inkscape:window-height="1440"
     inkscape:window-x="0"
     inkscape:window-y="59"
     inkscape:window-maximized="0"
     inkscape:current-layer="svg1" />
  <g
     id="g1"
     transform="matrix(1.3333333,0,0,1.3333333,2e-7,-3.84485)">
    <path
       d="m 12,12.1816 c -0.4365,0.111 -0.7064,0.0048 -0.9486,-0.3589 C 10.5078,11.0081 9.90763,10.2309 9.32855,9.43932 9.25389,9.33691 9.17636,9.2364 9.07969,9.1091 8.39435,10.0337 7.70998,10.9143 7.06772,11.8303 6.838,12.1577 6.59679,12.3003 6.16798,12.1845 L 8.74468,8.72623 6.34602,5.603 C 6.75855,5.5226 7.04379,5.56375 7.29648,5.93322 7.85451,6.74873 8.46997,7.52499 9.08351,8.34624 9.70089,7.52786 10.3087,6.75064 10.883,5.94279 11.1137,5.61544 11.3616,5.49101 11.776,5.61161 11.4621,6.02798 11.1548,6.43765 10.8457,6.84444 10.4283,7.3929 10.0187,7.94806 9.58603,8.48503 9.43192,8.67646 9.45681,8.80089 9.59464,8.9818 10.3948,10.0337 11.1855,11.0962 12,12.1816 Z M 0.00287151,8.6688 C 0.0717875,8.32327 0.117732,7.97103 0.213448,7.63219 0.787748,5.58098 3.14238,4.72815 4.75999,5.99926 5.70759,6.7449 5.94305,7.79587 5.89615,8.98084 H 0.555157 C 0.474755,11.1067 2.00526,12.3903 3.95597,11.7356 4.64035,11.5058 5.04331,10.9698 5.24527,10.2998 5.34769,9.96385 5.51711,9.91121 5.83297,10.0069 5.67121,10.8454 5.30462,11.546 4.53889,11.9844 3.39029,12.641 1.75066,12.4286 0.888251,11.5164 0.379038,10.9804 0.162718,10.3132 0.0670017,9.59247 0.0526442,9.47761 0.022972,9.36466 0,9.25076 0.00191433,9.05677 0.00287151,8.86279 0.00287151,8.6688 Z M 0.564728,8.52619 H 5.39172 C 5.36013,6.98898 4.40297,5.89685 3.09452,5.88728 1.65877,5.87579 0.626944,6.94207 0.564728,8.52619 Z"
       fill="#000000"
       id="path1" />
  </g>
</svg>
