<?xml version="1.0" encoding="UTF-8" standalone="no"?>
<svg
   width="16"
   height="16"
   viewBox="0 0 16 16"
   fill="none"
   version="1.1"
   id="svg12"
   sodipodi:docname="postgres.svg"
   inkscape:version="1.4 (e7c3feb1, 2024-10-09)"
   xmlns:inkscape="http://www.inkscape.org/namespaces/inkscape"
   xmlns:sodipodi="http://sodipodi.sourceforge.net/DTD/sodipodi-0.dtd"
   xmlns="http://www.w3.org/2000/svg"
   xmlns:svg="http://www.w3.org/2000/svg">
  <defs
     id="defs12" />
  <sodipodi:namedview
     id="namedview12"
     pagecolor="#505050"
     bordercolor="#eeeeee"
     borderopacity="1"
     inkscape:showpageshadow="0"
     inkscape:pageopacity="0"
     inkscape:pagecheckerboard="0"
     inkscape:deskcolor="#505050"
     inkscape:zoom="6.359798"
     inkscape:cx="77.125091"
     inkscape:cy="43.318986"
     inkscape:window-width="2560"
     inkscape:window-height="1440"
     inkscape:window-x="0"
     inkscape:window-y="59"
     inkscape:window-maximized="0"
     inkscape:current-layer="svg12" />
  <g
     id="g12"
     transform="translate(0.49958362,-0.50061021)">
    <path
       d="m 14.368335,10.337977 c -1.854146,0.393231 -1.981956,-0.25262 -1.981956,-0.25262 C 14.344233,7.0968411 15.161898,3.3022713 14.455642,2.373808 12.52939,-0.15894211 9.1945464,1.0390725 9.138862,1.070325 L 9.11987,1.072925 C 8.7541116,0.99479504 8.3440592,0.94791634 7.8833828,0.94010372 7.0442865,0.92577959 6.4076862,1.1666826 5.9254881,1.5430124 c 0,0 -5.9495916,-2.52233132 -5.67242511,3.1721306 0.0594837,1.2110356 1.68705031,9.164814 3.62974381,6.762224 C 4.5928128,10.598398 5.278767,9.8561691 5.278767,9.8561691 5.6192139,10.089258 6.0280062,10.207767 6.4545199,10.164763 l 0.032903,-0.0286 c -0.010131,0.109409 -0.00506,0.216117 0.012651,0.342427 -0.4999095,0.575646 -0.3530979,0.675854 -1.354187,0.88817 -1.0124899,0.214817 -0.417653,0.596348 -0.029112,0.696655 0.4708072,0.12111 1.5592232,0.292924 2.2958014,-0.76706 l -0.029112,0.121109 c 0.1961755,0.161513 0.3341264,1.050883 0.3113446,1.856947 -0.022782,0.806064 -0.037973,1.359508 0.1164292,1.791842 0.1544122,0.432334 0.3088144,1.405011 1.6237683,1.114688 1.0985266,-0.242219 1.6680716,-0.869869 1.7477776,-1.916852 0.0557,-0.744858 0.183515,-0.63415 0.191116,-1.299602 l 0.102508,-0.315125 c 0.117709,-1.00918 0.019,-1.334706 0.696055,-1.183694 l 0.164613,0.0143 c 0.498639,0.0235 1.150391,-0.08201 1.532621,-0.265621 0.821365,-0.391931 1.311103,-1.049583 0.498639,-0.876369 z"
       fill="#336791"
       id="path1"
       style="stroke-width:1.00008" />
    <path
       d="m 7.2632338,10.909622 c 0.0038,-0.13021 0.1088486,-0.233018 0.2354086,-0.229118 0.12656,0.0039 0.2265379,0.112009 0.2227476,0.242219 -0.026582,0.967477 -0.021522,1.937653 0.012651,2.713715 0.031642,0.699255 0.086067,1.225397 0.1620028,1.420712 0.080996,0.207016 0.2062863,0.513041 0.4467553,0.720057 0.2341385,0.203216 0.594827,0.326826 1.1694124,0.200516 0.5024795,-0.110609 0.8404065,-0.268221 1.0656245,-0.50914 0.222717,-0.238219 0.349327,-0.575546 0.427833,-1.046883 0.05821,-0.343827 0.137911,-0.944175 0.210017,-1.541822 0.09111,-0.747459 0.174714,-1.502719 0.192415,-1.746238 0.0088,-0.13021 0.11891,-0.227918 0.24552,-0.217517 0.12651,0.0092 0.221517,0.12241 0.211316,0.25272 -0.0177,0.236919 -0.101208,1.001379 -0.196115,1.77094 -0.07601,0.617248 -0.156913,1.229297 -0.212617,1.561323 -0.09491,0.563845 -0.25572,0.979277 -0.550543,1.294402 -0.293624,0.313825 -0.704956,0.511741 -1.3010632,0.643251 C 8.8642303,16.601472 8.3757017,16.423158 8.0453856,16.136635 7.7201199,15.855413 7.5657177,15.482984 7.46827,15.231664 7.3720824,14.985544 7.3075373,14.404698 7.2733646,13.655939 7.240462,12.873377 7.2366617,11.8902 7.2632338,10.909622 Z"
       fill="#ffffff"
       id="path2"
       style="stroke-width:1.00008" />
    <path
       d="M 6.000184,1.2825718 C 6.1178833,1.3307556 6.1748378,1.4674864 6.1280141,1.588586 6.0811804,1.7096955 5.9482899,1.7682902 5.8305906,1.7201063 5.8154094,1.7135958 0.20878849,-0.64335938 0.46823699,4.6799802 0.49987649,5.3375821 1.0061195,8.0278947 1.7756003,9.9043529 2.0185995,10.49559 2.2856406,11.00083 2.569133,11.323755 c 0.2366687,0.270821 0.4783978,0.401032 0.7112762,0.315125 0.1290902,-0.0482 0.2670411,-0.156312 0.4125826,-0.336027 0.7125363,-0.881569 1.3605174,-1.5782043 1.3630576,-1.5795044 0.087327,-0.093757 0.2315983,-0.097668 0.3227255,-0.00782 0.091127,0.089857 0.094918,0.2382988 0.00759,0.3320264 -0.00126,0.0013 -0.6340601,0.679754 -1.3415359,1.556123 C 3.8435931,11.853698 3.6385669,12.00871 3.4322806,12.084216 2.9943766,12.244328 2.5919148,12.056913 2.227426,11.64018 1.9084908,11.276851 1.6148776,10.726008 1.354157,10.086657 0.56315749,8.1607252 0.0429945,5.3844658 0.0100888,4.7021119 -0.2847965,-1.3608671 5.9824626,1.2747612 6.000184,1.2825718 Z"
       fill="#ffffff"
       id="path3"
       style="stroke-width:1.00008" />
    <path
       d="M 9.2515509,1.2461289 8.911104,0.86329065 c 0.027842,-0.0104178 0.055684,-0.0195335 0.083527,-0.0273462 0.074676,-0.024742 0.1556723,-0.0494829 0.2429992,-0.075527 0.1278301,-0.0390651 0.3151349,-0.0898511 0.544213,-0.1354277 1.1428198,-0.22788201 3.3727958,-0.35158978 4.8422118,1.58085485 0.415133,0.5456131 0.38093,1.8959798 -0.0481,3.4950661 -0.37973,1.4154819 -1.064385,3.0471208 -2.011059,4.4925553 -0.07091,0.108108 -0.213917,0.136711 -0.318926,0.0638 -0.105008,-0.07291 -0.13291,-0.220118 -0.062,-0.3281562 C 13.102742,8.526649 13.765995,6.944494 14.134224,5.5745958 14.526555,4.1135403 14.58856,2.9220462 14.263334,2.4949225 12.944623,0.76171963 10.910762,0.87891689 9.8666295,1.0885665 9.6527426,1.1315398 9.4818891,1.1771134 9.3654599,1.2122762 Z"
       fill="#ffffff"
       id="path4"
       style="stroke-width:1.00008" />
    <path
       d="m 12.591495,9.9889896 c 0.0025,0.00651 0.0038,0.013061 0.0051,0.019561 0,0.0013 0.07841,0.421833 1.712335,0.07551 0.231619,-0.0495 0.396132,-0.0391 0.50244,0.0143 0.137911,0.06771 0.197416,0.181015 0.188615,0.326826 -0.0051,0.08861 -0.0456,0.183615 -0.112709,0.278722 -0.154412,0.217417 -0.50744,0.498739 -0.936474,0.703156 -0.321525,0.153712 -0.811264,0.25652 -1.260599,0.282622 -0.264521,0.0156 -0.517641,0.0052 -0.718857,-0.0365 -0.25312,-0.0521 -0.445535,-0.160213 -0.525242,-0.335926 -0.0215,-0.0469 -0.0341,-0.09771 -0.0367,-0.152412 -0.0506,-0.914073 0.382231,-1.074285 0.684754,-1.162792 -0.0317,-0.046924 -0.0747,-0.1029197 -0.122809,-0.1641145 C 11.818234,9.6413021 11.622018,9.3886822 11.466406,9.0019316 11.442304,8.943327 11.372698,8.8131167 11.279091,8.6412231 10.88296,7.9106954 10.103298,6.4704816 10.25641,5.487324 10.365319,4.7854485 10.88546,4.3192717 12.185263,4.4586027 l -0.0127,-0.039063 C 12.110557,4.2385353 12.011849,4.0015366 11.868838,3.7358856 11.301893,2.6733016 10.065395,1.1914146 7.8695317,1.1549517 4.5194871,1.0989573 4.6295958,5.4456607 4.6295958,5.4573816 4.632126,5.5875919 4.530878,5.6943803 4.404318,5.6969805 c -0.12656,0.0026 -0.2303482,-0.101568 -0.2328784,-0.2317883 0,-0.014321 -0.1240298,-4.84543579 3.7044226,-4.78162875 2.4172508,0.0403672 3.7740578,1.66289235 4.3942068,2.82444415 0.154413,0.2890828 0.264521,0.5521236 0.334127,0.7565698 0.07841,0.2291781 0.107508,0.4088823 0.09491,0.4883185 -0.0177,0.1171993 -0.08101,0.1901151 -0.189915,0.2122568 l -0.08221,0.0013 c -1.192194,-0.1966255 -1.64273,0.1041782 -1.718736,0.5937969 -0.12781,0.8242851 0.601147,2.1681413 0.970777,2.8517853 0.09991,0.1849146 0.175914,0.3255457 0.210016,0.4114925 0.131711,0.3268559 0.303824,0.5482233 0.437935,0.7227171 0.12531,0.1575625 0.224018,0.2851826 0.264521,0.442745 z m 1.809843,0.5560044 c -1.211196,0.25782 -1.775641,0.069 -2.035161,-0.134111 -0.0354,0.0117 -0.07341,0.0221 -0.113909,0.0339 -0.161913,0.0468 -0.413833,0.119809 -0.387231,0.679753 0.019,0.0208 0.08991,0.0429 0.193616,0.0651 0.165813,0.0338 0.37843,0.0416 0.604947,0.0286 0.396132,-0.0234 0.822665,-0.110709 1.094787,-0.240919 0.279722,-0.134111 0.513841,-0.295624 0.658152,-0.436235 z"
       fill="#ffffff"
       id="path5"
       style="stroke-width:1.00008" />
    <path
       d="m 6.6570659,10.614099 c -0.093657,0.108009 -0.1708535,0.208316 -0.2366687,0.294223 -0.2809622,0.367229 -0.3682891,0.481838 -1.240288,0.666753 -0.1569424,0.0338 -0.2632508,0.0664 -0.329056,0.09891 0.080996,0.0599 0.202496,0.109408 0.3088044,0.136811 0.215147,0.056 0.5720552,0.122409 0.9542654,0.056 0.3720894,-0.0651 0.7732811,-0.261821 1.0985368,-0.730558 0.010131,-0.0156 0.018992,-0.0326 0.026582,-0.0495 0.032903,-0.08201 0.025312,-0.184914 -0.00759,-0.282522 -0.035443,-0.104208 -0.099988,-0.195415 -0.1746538,-0.25132 -0.017721,-0.0131 -0.035443,-0.0235 -0.054424,-0.0313 l -0.011391,-0.0052 c -0.046824,-0.0195 -0.098718,-0.0404 -0.1430113,-0.0365 -0.048094,0.0052 -0.1088386,0.0391 -0.1911051,0.134211 z m -0.5973672,0.0013 c 0.062015,-0.08081 0.1341506,-0.174514 0.2429992,-0.300824 0.00886,-0.0117 0.018981,-0.0235 0.029102,-0.0339 0.1683333,-0.187515 0.329056,-0.257821 0.4771377,-0.270822 0.1468116,-0.013041 0.2607106,0.0299 0.3568982,0.07161 0.0038,0.0013 0.00759,0.0026 0.012661,0.0052 0.049354,0.0208 0.097448,0.0495 0.1442714,0.08331 0.1506119,0.110709 0.2746417,0.286523 0.341717,0.477938 0.068345,0.199215 0.079726,0.421933 -0.00127,0.619849 -0.020252,0.0495 -0.045564,0.09641 -0.077196,0.141911 -0.4100624,0.591247 -0.9213628,0.838666 -1.3947002,0.921973 -0.4644767,0.08201 -0.8871801,0.0026 -1.1428403,-0.0625 C 4.8624441,12.220926 4.632096,12.114218 4.4966853,11.983907 4.416949,11.907101 4.3625247,11.815994 4.3473435,11.714386 4.3296221,11.593276 4.3650549,11.476067 4.4726334,11.371959 4.5764116,11.271651 4.7687867,11.180544 5.0864518,11.112738 5.7939277,10.963027 5.8572027,10.88102 6.0596987,10.615399 Z"
       fill="#ffffff"
       id="path6"
       style="stroke-width:1.00008" />
    <path
       d="m 6.6810978,10.409583 c 0.018992,0.12891 -0.067075,0.25002 -0.1923652,0.268221 -0.1252999,0.0183 -0.2429992,-0.06901 -0.2607206,-0.197916 -0.00506,-0.0312 -0.00759,-0.06251 -0.010121,-0.09501 -0.075936,-0.0026 -0.1506119,-0.0078 -0.2240077,-0.0196 C 5.5028247,10.294974 5.0585996,10.039754 4.7244832,9.6621438 4.3941572,9.2897244 4.1714096,8.7974955 4.1195255,8.2479721 4.100534,8.0526466 4.1043343,7.8495006 4.1321765,7.6450644 4.2448154,6.8194792 4.201782,6.0811309 4.1802703,5.6982906 4.1739398,5.5941224 4.1701495,5.5159862 4.1701495,5.4560815 4.1714096,5.3011293 4.5498295,4.9599523 5.0484688,4.7489956 5.2737466,4.6539381 5.5256065,4.5745019 5.7749262,4.5354388 6.038177,4.4950756 6.303948,4.4989759 6.5431469,4.575812 6.9177665,4.6969115 7.21518,4.9820941 7.329089,5.5277072 7.7404115,7.4822916 7.372122,8.3221979 7.0848297,8.9797999 c -0.049364,0.1132889 -0.096188,0.2200674 -0.1316204,0.316435 -0.00127,0.00651 -0.0038,0.011721 -0.00633,0.018231 -0.12023,0.3333568 0.055684,-0.1549618 -0.035443,0.093758 C 6.7684247,9.8092954 6.6431348,10.153063 6.6810978,10.409583 Z M 6.2672451,9.9147737 c 0.049364,-0.2096565 0.1303603,-0.431024 0.2164171,-0.6693228 0.068345,-0.1875148 -0.1100987,0.3034039 0.032913,-0.093757 0.00253,-0.00651 0.00506,-0.013021 0.00759,-0.019532 C 6.5684589,9.0110524 6.6165527,8.9029738 6.6659166,8.7883848 6.9266272,8.1932777 7.2582134,7.4328077 6.8798035,5.6305753 6.8063977,5.2802876 6.6279436,5.1005934 6.405196,5.0289678 6.2381428,4.9755835 6.0419673,4.9742734 5.8407414,5.0055259 5.6255844,5.0393886 5.4104374,5.1071039 5.2180622,5.1878403 4.8801455,5.3297715 4.6244954,5.449571 4.6244954,5.4599918 c 0,0.033853 0.0038,0.1106888 0.010131,0.2135569 0.022772,0.3971714 0.067075,1.1667622 -0.050624,2.0392211 -0.022782,0.1705935 -0.026582,0.3359665 -0.011391,0.4948391 0.041763,0.442735 0.2214774,0.8399063 0.4885185,1.1407101 0.2632408,0.2969035 0.6112883,0.4987394 0.9934985,0.5534337 0.070876,0.00781 0.1417512,0.013021 0.2126167,0.013021 z"
       fill="#ffffff"
       id="path7"
       style="stroke-width:1.00008" />
    <path
       d="M 5.8938956,5.424839 C 5.8837748,5.5016751 6.0318465,5.7087215 6.2242217,5.7360636 6.4165969,5.7634058 6.58239,5.601943 6.5925108,5.525107 6.6026416,5.4482809 6.4545599,5.3623341 6.2621947,5.3349919 6.0698195,5.3076498 5.9040264,5.348013 5.8938956,5.424839 Z"
       fill="#ffffff"
       id="path8"
       style="stroke-width:1.00008" />
    <path
       d="m 5.9698216,5.4352899 c -0.00253,0.016931 0.024042,0.061205 0.068345,0.1093886 0.049354,0.053384 0.1189594,0.101568 0.1961655,0.1132889 h 0.00127 c 0.075936,0.010411 0.1468016,-0.015631 0.1999558,-0.053394 0.049364,-0.033853 0.079736,-0.070315 0.083537,-0.091147 0,-0.00391 -0.018981,-0.015631 -0.050624,-0.033863 C 6.4165769,5.449621 6.3406409,5.424879 6.253314,5.411848 H 6.250784 C 6.164727,5.400137 6.0849909,5.402738 6.0280364,5.417058 5.9926034,5.426178 5.9698214,5.432689 5.9698216,5.4352899 Z M 5.9280583,5.652757 C 5.8533824,5.5720207 5.8116191,5.475663 5.8192097,5.4157583 v -0.0026 c 0.010131,-0.074226 0.074676,-0.1250099 0.1733937,-0.1497518 0.074666,-0.018231 0.1733837,-0.022142 0.278432,-0.00782 0.00126,0 0.00253,0 0.0038,0 0.1063084,0.015631 0.2012259,0.046884 0.2683012,0.085947 0.088597,0.050784 0.1379509,0.1197995 0.1278301,0.1927253 -0.0076,0.057294 -0.064545,0.1406411 -0.1493418,0.1992357 -0.079736,0.055994 -0.1885749,0.096358 -0.3062742,0.079436 h -0.00127 C 6.0976517,5.7972985 5.9976638,5.728283 5.9280583,5.652757 Z"
       fill="#ffffff"
       id="path9"
       style="stroke-width:1.00008" />
    <path
       d="m 11.77143,5.2672966 c 0.0101,0.076826 -0.138011,0.2838824 -0.330326,0.3112246 -0.193715,0.027342 -0.358228,-0.1341306 -0.368329,-0.2109567 -0.0101,-0.076826 0.137911,-0.1627729 0.331626,-0.190115 0.191115,-0.027352 0.355628,0.013021 0.367029,0.089847 z"
       fill="#ffffff"
       id="path10"
       style="stroke-width:1.00008" />
    <path
       d="m 11.808133,5.2620762 c 0.0063,0.049474 -0.0317,0.1341206 -0.09881,0.2070463 -0.06451,0.070316 -0.158112,0.1341206 -0.264421,0.1484418 h -0.0013 c -0.106308,0.014331 -0.205016,-0.022132 -0.278422,-0.072916 -0.07601,-0.052094 -0.12531,-0.1237098 -0.13291,-0.1718936 -0.0076,-0.055994 0.0342,-0.1106787 0.108808,-0.1536521 0.0633,-0.036463 0.153212,-0.066415 0.25442,-0.080736 0.101208,-0.014331 0.196216,-0.010421 0.267021,0.00651 0.08351,0.019532 0.138011,0.059895 0.145612,0.1171993 z m -0.154412,0.152352 c 0.0518,-0.055994 0.08221,-0.1132889 0.07841,-0.1419412 -0.0025,-0.020832 -0.0354,-0.039063 -0.08601,-0.052084 -0.062,-0.015631 -0.146812,-0.018231 -0.239219,-0.00521 -0.09111,0.013021 -0.172113,0.040363 -0.227818,0.071616 -0.0456,0.026052 -0.07211,0.053394 -0.06961,0.074226 0.0038,0.028652 0.0418,0.076836 0.100008,0.1171992 0.0595,0.041673 0.140411,0.071626 0.226517,0.059905 h 0.0013 c 0.08481,-0.011721 0.161912,-0.065115 0.216417,-0.1237098 z"
       fill="#ffffff"
       id="path11"
       style="stroke-width:1.00008" />
    <path
       d="m 12.231966,4.7438152 c -0.0063,-0.1302103 0.09121,-0.240899 0.217718,-0.2474095 0.12661,-0.00651 0.234118,0.093757 0.240519,0.2239777 0.0189,0.3646088 -0.0241,0.6536916 -0.06961,0.9571056 -0.0342,0.2265779 -0.0696,0.4635766 -0.07721,0.7279175 -0.0076,0.2513199 0.024,0.5299919 0.05821,0.8164745 0.08861,0.7539696 0.182214,1.5613234 -0.362029,2.3960193 -0.07081,0.1080785 -0.212617,0.1367308 -0.317625,0.065115 -0.105008,-0.072926 -0.132911,-0.2187672 -0.0633,-0.3268558 0.448035,-0.6888544 0.364529,-1.4063611 0.286022,-2.0782842 -0.0354,-0.2995036 -0.06961,-0.5911967 -0.0595,-0.8854899 0.0089,-0.3047141 0.0456,-0.5482233 0.08101,-0.783912 0.0431,-0.2838824 0.08231,-0.5521336 0.0658,-0.8646583 z"
       fill="#ffffff"
       id="path12"
       style="stroke-width:1.00008" />
  </g>
</svg>
