<?xml version="1.0" encoding="UTF-8" standalone="no"?>
<svg
   width="16"
   height="16"
   viewBox="0 0 16 16"
   fill="none"
   version="1.1"
   id="svg2"
   sodipodi:docname="icon_react.svg"
   inkscape:version="1.4 (e7c3feb1, 2024-10-09)"
   xmlns:inkscape="http://www.inkscape.org/namespaces/inkscape"
   xmlns:sodipodi="http://sodipodi.sourceforge.net/DTD/sodipodi-0.dtd"
   xmlns="http://www.w3.org/2000/svg"
   xmlns:svg="http://www.w3.org/2000/svg">
  <defs
     id="defs2" />
  <sodipodi:namedview
     id="namedview2"
     pagecolor="#505050"
     bordercolor="#eeeeee"
     borderopacity="1"
     inkscape:showpageshadow="0"
     inkscape:pageopacity="0"
     inkscape:pagecheckerboard="0"
     inkscape:deskcolor="#505050"
     inkscape:zoom="25.317078"
     inkscape:cx="13.804911"
     inkscape:cy="9.8550078"
     inkscape:window-width="2560"
     inkscape:window-height="1440"
     inkscape:window-x="0"
     inkscape:window-y="59"
     inkscape:window-maximized="0"
     inkscape:current-layer="svg2" />
  <path
     d="m 13.154756,5.4985009 c -0.1704,-0.058036 -0.342045,-0.1120889 -0.514934,-0.16216 0.02862,-0.1163022 0.05511,-0.2332711 0.07929,-0.3508978 C 13.109156,3.0946876 12.854133,1.571452 11.983822,1.0700218 11.150578,0.58885998 9.7839111,1.0902911 8.4053156,2.289212 8.2697689,2.4075053 8.1369956,2.5293453 8.0069956,2.654732 7.9203378,2.5714342 7.8314489,2.4899142 7.7403467,2.4101631 6.2954044,1.1281729 4.8471289,0.58819509 3.9778311,1.0912884 3.1445333,1.5734431 2.89688,3.0053009 3.2478667,4.7973631 3.2829778,4.9745898 3.3224178,5.1510342 3.3661956,5.3267053 3.1612,5.3848565 2.9632089,5.4469987 2.7738844,5.5127942 1.0819556,6.1026165 0,7.0273898 0,7.9863853 0,8.977292 1.1612889,9.9708387 2.9255467,10.573327 c 0.1431022,0.04845 0.2875377,0.0936 0.4333155,0.1352 -0.047333,0.188089 -0.089218,0.378312 -0.1256622,0.570578 -0.3333244,1.761156 -0.073333,3.159111 0.7583022,3.638311 0.85896,0.494756 2.2999022,-0.01369 3.7045067,-1.239822 0.1111111,-0.09707 0.2222133,-0.199467 0.3333244,-0.307378 0.1404356,0.135378 0.28488,0.266756 0.4333156,0.394134 1.3599289,1.168977 2.7028621,1.641155 3.5331731,1.160711 0.858311,-0.496445 1.137334,-1.998489 0.775022,-3.825778 -0.02782,-0.139556 -0.05982,-0.281956 -0.096,-0.427289 0.101334,-0.02987 0.200534,-0.0608 0.2976,-0.09271 C 14.805689,9.972172 16,8.9905809 16,7.9873898 15.999289,7.0237365 14.882756,6.0929809 13.154756,5.4985009 Z M 8.85496,2.8042609 c 1.180951,-1.02712 2.284951,-1.4325156 2.78824,-1.1427556 0.535644,0.3087023 0.743911,1.5534756 0.407289,3.1860356 -0.02222,0.1063289 -0.04622,0.2123378 -0.072,0.318 C 11.273778,5.0057365 10.559111,4.8929453 9.8392889,4.827932 9.4271111,4.2360742 8.9752889,3.6726609 8.4869778,3.1415409 8.6065333,3.0259053 8.7289689,2.9134787 8.8543022,2.8042609 Z M 4.7241333,8.8058253 C 4.8688,9.0849542 5.0200089,9.3606165 5.1777867,9.6328831 5.3384444,9.9106609 5.5058844,10.184439 5.6800978,10.454039 5.1848089,10.40035 4.6926222,10.321239 4.2054933,10.217061 4.3468178,9.7611498 4.5208089,9.2876565 4.7241333,8.8058253 Z m 0,-1.6059733 C 4.5241422,6.7283231 4.3548178,6.2644387 4.2158222,5.8165098 4.6724711,5.714492 5.15912,5.6310876 5.6664267,5.5679498 5.4964356,5.8324565 5.3328889,6.1008387 5.1757867,6.3731053 5.0186756,6.6453631 4.8677956,6.9209453 4.7231378,7.199852 Z M 5.0874578,8.0030076 C 5.2981156,7.5650431 5.5249956,7.1354965 5.7680889,6.7143676 6.0109689,6.2934609 6.26952,5.8821898 6.5437244,5.4805631 c 0.4759823,-0.035893 0.9639645,-0.054836 1.4569423,-0.054836 0.4929777,0 0.9839555,0.018942 1.4596,0.055164 0.2712889,0.4007467 0.5283555,0.8105778 0.7709333,1.2294845 0.242667,0.4189155 0.472533,0.8464711 0.689689,1.2826577 -0.214222,0.4395111 -0.443556,0.8708356 -0.688,1.2939556 -0.2424001,0.4209155 -0.4979557,0.8333601 -0.7665779,1.2374491 -0.4750222,0.03324 -0.9666667,0.05156 -1.4666489,0.05156 -0.4999733,0 -0.9822844,-0.01564 -1.4486044,-0.04587 C 6.2748533,10.127105 6.0141956,9.7141276 5.7690933,9.290972 5.5239911,8.867852 5.2964444,8.4385276 5.0864533,8.0030076 Z m 5.7370752,1.6252533 c 0.161156,-0.2786667 0.315823,-0.5610311 0.464,-0.8470222 0.2032,0.4592533 0.382489,0.9286222 0.537334,1.4062223 -0.492889,0.110667 -0.9912,0.195555 -1.492978,0.254222 0.169333,-0.267822 0.333244,-0.5389332 0.491644,-0.8134221 z m 0.457334,-2.42808 C 11.134311,6.9199498 10.980889,6.6430342 10.821511,6.3694431 10.665956,6.0996209 10.503911,5.8331231 10.3352,5.5699498 c 0.510311,0.064462 1,0.1501955 1.458933,0.2548622 -0.147555,0.46672 -0.318489,0.9257511 -0.512266,1.3753689 z M 8.0073333,3.6296831 c 0.3328356,0.3625689 0.6471111,0.7416445 0.9416445,1.1357778 -0.6299911,-0.029902 -1.2604089,-0.029902 -1.8912711,0 C 7.3686933,4.3554165 7.6870133,3.9749365 8.0073333,3.6296831 Z M 4.3218222,1.681772 c 0.5353067,-0.3096978 1.7189245,0.1329245 2.9665422,1.2384622 0.079662,0.070782 0.1599912,0.14488 0.2399912,0.2216445 -0.4908623,0.53104 -0.94584,1.0939644 -1.3619467,1.6850578 C 5.4481867,4.891452 4.7349333,5.0024476 4.0311644,5.1592298 3.9904978,4.9961898 3.9538311,4.8320298 3.9211733,4.6667765 3.61952,3.1305809 3.8191733,1.9725365 4.3218222,1.681772 Z M 3.54152,10.050572 C 3.4081956,10.012705 3.2765333,9.9716387 3.1465333,9.9272831 2.3665689,9.6615053 1.7222578,9.314572 1.2799467,8.9367498 0.88396356,8.5981453 0.68330489,8.2601987 0.68330489,7.9863853 c 0,-0.58184 0.86863291,-1.3241866 2.31723731,-1.8276177 C 3.1825333,6.0956387 3.36608,6.037932 3.5511822,5.9856476 3.7663289,6.6749187 4.02688,7.3492831 4.3311556,8.004332 4.0232533,8.6684387 3.7594756,9.3519942 3.54152,10.050572 Z m 3.7041778,3.112622 C 6.62472,13.705505 6.0027467,14.08995 5.4544356,14.283727 c -0.49264,0.173778 -0.88496,0.178756 -1.1219467,0.04213 -0.5046489,-0.290756 -0.71464,-1.413511 -0.42832,-2.919467 0.034,-0.177244 0.072889,-0.354489 0.1166667,-0.531733 0.7108088,0.152711 1.4312266,0.256889 2.15624,0.312089 0.4201688,0.594133 0.8789066,1.160266 1.37328,1.694666 -0.099333,0.09733 -0.2009956,0.191023 -0.3046578,0.281778 z M 8.0263289,12.391639 C 7.7023467,12.042394 7.3790222,11.655905 7.0637067,11.240527 c 0.3064266,0.012 0.6184177,0.01796 0.9359555,0.01796 0.3259911,0 0.64864,-0.0069 0.9666489,-0.02124 C 8.6728444,11.637683 8.35912,12.023016 8.0263289,12.391639 Z M 12.1768,13.341683 c -0.09529,0.512978 -0.286933,0.855289 -0.523911,0.992178 -0.504356,0.291733 -1.582667,-0.08738 -2.7452446,-1.087289 C 8.7743022,13.132261 8.6409778,13.009683 8.5053156,12.881061 8.9900444,12.344616 9.4380444,11.776172 9.8462222,11.179727 10.575289,11.118127 11.2992,11.006572 12.0128,10.845772 c 0.03271,0.131555 0.0616,0.260533 0.08667,0.386755 0.160355,0.807556 0.183377,1.537867 0.07733,2.109156 z m 0.58,-3.4106665 c -0.08729,0.028889 -0.177333,0.0568 -0.268622,0.083999 -0.223822,-0.6924884 -0.494489,-1.3690484 -0.810311,-2.0249684 0.303911,-0.6471734 0.564089,-1.31392 0.778577,-1.99576 0.163734,0.04752 0.322667,0.09736 0.475645,0.1501955 1.480622,0.5090756 2.383911,1.26272 2.383911,1.8419022 0,0.6180712 -0.975556,1.4201867 -2.5592,1.9446312 z"
     fill="#58c4dc"
     id="path1"
     style="stroke-width:0.888889" />
  <path
     d="M 7.9953316,9.4288696 C 8.2790027,9.4297585 8.556576,9.3467451 8.7928872,9.1903007 9.0291627,9.0338563 9.2136072,8.8110207 9.3228516,8.5500074 9.4320072,8.2890029 9.4610738,8.0015629 9.4063183,7.7240874 9.3515627,7.4466029 9.2153849,7.1915718 9.0151183,6.9912785 8.8148694,6.7909763 8.5594916,6.654434 8.2813405,6.5989229 8.0031805,6.5434118 7.7147627,6.5714296 7.4525938,6.6794385 7.1904249,6.7874474 6.9663005,6.9705851 6.8086027,7.2056607 c -0.1576978,0.2350756 -0.2418755,0.51152 -0.2418755,0.79432 -3.912e-4,0.18736 0.036258,0.37296 0.1078488,0.5461867 0.0716,0.1732355 0.1767378,0.3307022 0.3094134,0.4634044 0.1326844,0.1326933 0.2902933,0.2380267 0.4638222,0.3099733 0.1735289,0.071902 0.3595822,0.1090578 0.54752,0.1093245 z"
     fill="#58c4dc"
     id="path2"
     style="stroke-width:0.888889" />
</svg>
