<?xml version="1.0" encoding="UTF-8" standalone="no"?>
<svg
   height="500"
   viewBox="0 -960 10000 10000"
   width="500"
   fill="#e3e3e3"
   version="1.1"
   id="svg1"
   sodipodi:docname="icon_satisfaction.svg"
   inkscape:version="1.4 (e7c3feb1, 2024-10-09)"
   xmlns:inkscape="http://www.inkscape.org/namespaces/inkscape"
   xmlns:sodipodi="http://sodipodi.sourceforge.net/DTD/sodipodi-0.dtd"
   xmlns="http://www.w3.org/2000/svg"
   xmlns:svg="http://www.w3.org/2000/svg">
  <defs
     id="defs1" />
  <sodipodi:namedview
     id="namedview1"
     pagecolor="#505050"
     bordercolor="#eeeeee"
     borderopacity="1"
     inkscape:showpageshadow="0"
     inkscape:pageopacity="0"
     inkscape:pagecheckerboard="0"
     inkscape:deskcolor="#505050"
     inkscape:zoom="1.9576236"
     inkscape:cx="36.779287"
     inkscape:cy="252.34677"
     inkscape:window-width="2560"
     inkscape:window-height="1387"
     inkscape:window-x="0"
     inkscape:window-y="84"
     inkscape:window-maximized="0"
     inkscape:current-layer="svg1" />
  <path
     d="m 5000,6777.5 q 825,0 1518.75,-443.75 Q 7212.5,5890 7525,5127.5 H 2475 Q 2800,5890 3487.5,6333.75 4175,6777.5 5000,6777.5 Z M 2775,3377.5 3337.5,2815 3900,3377.5 4350,2927.5 3337.5,1915 2325,2927.5 Z m 3337.5,0 562.5,-562.5 562.5,562.5 450,-450 L 6675,1915 5662.5,2927.5 Z M 5000,9040 Q 3962.5,9040 3050,8646.25 2137.5,8252.5 1462.5,7577.5 787.5,6902.5 393.75,5990 0,5077.5 0,4040 0,3002.5 393.75,2090 787.5,1177.5 1462.5,502.5 2137.5,-172.5 3050,-566.25 3962.5,-960 5000,-960 q 1037.5,0 1950,393.75 912.5,393.75 1587.5,1068.75 675,675 1068.75,1587.5 393.75,912.5 393.75,1950 0,1037.5 -393.75,1950 Q 9212.5,6902.5 8537.5,7577.5 7862.5,8252.5 6950,8646.25 6037.5,9040 5000,9040 Z"
     id="path1"
     style="fill:#ddb444;fill-opacity:1;stroke-width:12.5" />
</svg>
