<svg width="57" height="61" viewBox="0 0 57 61" fill="none" xmlns="http://www.w3.org/2000/svg">
<path d="M42 60.3836V51.3836H33V45.3836H42V36.3836H48V45.3836H57V51.3836H48V60.3836H42ZM6 54.3836C4.35 54.3836 2.9375 53.7961 1.7625 52.6211C0.5875 51.4461 0 50.0336 0 48.3836V12.3836C0 10.7336 0.5875 9.32113 1.7625 8.14613C2.9375 6.97113 4.35 6.38363 6 6.38363H9V0.383633H15V6.38363H33V0.383633H39V6.38363H42C43.65 6.38363 45.0625 6.97113 46.2375 8.14613C47.4125 9.32113 48 10.7336 48 12.3836V30.6836C47 30.5336 46 30.4586 45 30.4586C44 30.4586 43 30.5336 42 30.6836V24.3836H6V48.3836H27C27 49.3836 27.075 50.3836 27.225 51.3836C27.375 52.3836 27.65 53.3836 28.05 54.3836H6Z" fill="white"/>
</svg>
