<?xml version="1.0" encoding="UTF-8" standalone="no"?>
<svg
   width="16"
   height="16"
   viewBox="0 0 16 16"
   fill="none"
   version="1.1"
   id="svg1"
   sodipodi:docname="prisma.svg"
   inkscape:version="1.4 (e7c3feb1, 2024-10-09)"
   xmlns:inkscape="http://www.inkscape.org/namespaces/inkscape"
   xmlns:sodipodi="http://sodipodi.sourceforge.net/DTD/sodipodi-0.dtd"
   xmlns="http://www.w3.org/2000/svg"
   xmlns:svg="http://www.w3.org/2000/svg">
  <sodipodi:namedview
     id="namedview1"
     pagecolor="#505050"
     bordercolor="#eeeeee"
     borderopacity="1"
     inkscape:showpageshadow="0"
     inkscape:pageopacity="0"
     inkscape:pagecheckerboard="0"
     inkscape:deskcolor="#505050"
     inkscape:zoom="22.072318"
     inkscape:cx="28.610498"
     inkscape:cy="9.6047909"
     inkscape:window-width="2560"
     inkscape:window-height="1387"
     inkscape:window-x="0"
     inkscape:window-y="84"
     inkscape:window-maximized="0"
     inkscape:current-layer="svg1" />
  <g
     clip-path="url(#clip0_363_5017)"
     id="g1"
     transform="matrix(1.0110512,0,0,1.0110512,1.4937735,-0.62505746)">
    <path
       fill-rule="evenodd"
       clip-rule="evenodd"
       d="M 12.7846,12.6747 7.38426,1.11742 C 7.31716,0.975186 7.21314,0.853881 7.08323,0.766344 6.95331,0.678807 6.80233,0.628296 6.64626,0.620157 6.48992,0.609601 6.33369,0.642447 6.19458,0.715124 6.05546,0.787801 5.93878,0.897527 5.85723,1.03237 L -2.64366e-5,10.5927 C -0.0890955,10.7371 -0.13548,10.904 -0.133742,11.074 c 0.001738,0.17 0.0515271,0.336 0.14352935,0.4784 L 2.87345,16.0215 c 0.10834,0.1677 0.26759,0.2957 0.45401,0.3648 0.18641,0.0691 0.38999,0.0756 0.58036,0.0185 l 8.31028,-2.4772 c 0.1252,-0.0369 0.241,-0.1004 0.3396,-0.1862 0.0987,-0.0859 0.1779,-0.1921 0.2324,-0.3115 0.0537,-0.1187 0.081,-0.2478 0.0801,-0.3783 -9e-4,-0.1305 -0.0299,-0.2593 -0.0852,-0.3773 z m -1.2091,0.4957 -7.05176,2.1014 C 4.30862,15.3363 4.10214,15.1484 4.14689,14.9296 L 6.66628,2.77259 C 6.71339,2.54512 7.02507,2.50912 7.1236,2.71958 l 4.6639,9.98082 c 0.0206,0.0445 0.0314,0.093 0.0317,0.1421 2e-4,0.0491 -0.0101,0.0976 -0.0303,0.1423 -0.0202,0.0447 -0.0498,0.0844 -0.0867,0.1164 -0.0369,0.0321 -0.0798,0.0557 -0.1267,0.0692 z"
       fill="#000000"
       id="path1" />
  </g>
  <defs
     id="defs1">
    <clipPath
       id="clip0_363_5017">
      <rect
         width="13"
         height="16"
         fill="#ffffff"
         transform="translate(0,0.5)"
         id="rect1"
         x="0"
         y="0" />
    </clipPath>
  </defs>
</svg>
