<?xml version="1.0" encoding="UTF-8" standalone="no"?>
<svg
   viewBox="0 0 110.265 64"
   version="1.1"
   id="svg1"
   sodipodi:docname="icon_express.svg"
   width="110.265"
   height="64"
   inkscape:version="1.4 (e7c3feb1, 2024-10-09)"
   xmlns:inkscape="http://www.inkscape.org/namespaces/inkscape"
   xmlns:sodipodi="http://sodipodi.sourceforge.net/DTD/sodipodi-0.dtd"
   xmlns="http://www.w3.org/2000/svg"
   xmlns:svg="http://www.w3.org/2000/svg">
  <defs
     id="defs1" />
  <sodipodi:namedview
     id="namedview1"
     pagecolor="#505050"
     bordercolor="#eeeeee"
     borderopacity="1"
     inkscape:showpageshadow="0"
     inkscape:pageopacity="0"
     inkscape:pagecheckerboard="0"
     inkscape:deskcolor="#505050"
     inkscape:zoom="1.6635032"
     inkscape:cx="142.16985"
     inkscape:cy="-124.13562"
     inkscape:window-width="2560"
     inkscape:window-height="1440"
     inkscape:window-x="0"
     inkscape:window-y="59"
     inkscape:window-maximized="0"
     inkscape:current-layer="svg1" />
  <path
     d="m 110.26498,62.304129 c -4.0106,1.020239 -6.49083,0.04398 -8.71601,-3.298186 C 96.55332,51.521259 91.038752,44.379587 85.717678,37.105987 85.031656,36.164905 84.319247,35.241412 83.430936,34.071656 77.133599,42.567783 70.845058,50.659333 64.943503,59.076304 c -2.110839,3.007946 -4.32722,4.318425 -8.267453,3.25421 L 80.352629,30.553591 58.311951,1.8549736 c 3.790715,-0.738794 6.411673,-0.360602 8.733596,3.034331 5.12758,7.4934794 10.78287,14.6263564 16.42057,22.1726064 5.67288,-7.519864 11.257813,-14.661537 16.534903,-22.0846544 2.11964,-3.007946 4.39758,-4.15131701 8.20589,-3.043127 -2.88481,3.825896 -5.70806,7.590226 -8.5489,11.3281704 -3.83469,5.039629 -7.59902,10.140823 -11.574433,15.07491 -1.416021,1.759032 -1.187347,2.902403 0.07916,4.564689 7.352753,9.665884 14.617553,19.428515 22.102243,29.40223 z M 0.02640519,30.025881 C 0.65965689,26.850827 1.0818247,23.614207 1.9613407,20.500719 7.2384387,1.6526846 28.87454,-6.1838054 43.738365,5.4961706 52.445577,12.347603 54.609187,22.004692 54.178224,32.893104 H 5.1012147 c -0.738794,19.534057 13.3246713,31.32837 31.2492143,25.312479 6.288541,-2.110839 9.991305,-7.03613 11.847084,-13.192744 0.941083,-3.087103 2.497826,-3.570837 5.40023,-2.69132 -1.486382,7.704562 -4.85493,14.142622 -11.89106,18.170806 C 31.152487,66.525807 16.086373,64.573281 8.1619307,56.191491 3.4829047,51.266199 1.4951977,45.135971 0.61568109,38.513213 0.48375369,37.457794 0.21110359,36.419964 1.9694824e-5,35.37334 Q 0.02640469,32.69961 0.02640519,30.025881 Z M 5.1891657,28.715402 H 49.543173 C 49.252933,14.59037 40.45777,4.5550886 28.434782,4.4671366 15.242037,4.3615946 5.7608517,14.159407 5.1891657,28.715402 Z"
     id="path1"
     style="stroke-width:0.879516" />
</svg>
