<?xml version="1.0" encoding="UTF-8" standalone="no"?>
<svg
   height="444.44446"
   viewBox="0 -960 20000 17777.778"
   width="500"
   fill="#e3e3e3"
   version="1.1"
   id="svg1"
   sodipodi:docname="icon_peace.svg"
   inkscape:version="1.4 (e7c3feb1, 2024-10-09)"
   xmlns:inkscape="http://www.inkscape.org/namespaces/inkscape"
   xmlns:sodipodi="http://sodipodi.sourceforge.net/DTD/sodipodi-0.dtd"
   xmlns="http://www.w3.org/2000/svg"
   xmlns:svg="http://www.w3.org/2000/svg">
  <defs
     id="defs1" />
  <sodipodi:namedview
     id="namedview1"
     pagecolor="#505050"
     bordercolor="#eeeeee"
     borderopacity="1"
     inkscape:showpageshadow="0"
     inkscape:pageopacity="0"
     inkscape:pagecheckerboard="0"
     inkscape:deskcolor="#505050"
     inkscape:zoom="0.57192486"
     inkscape:cx="-1159.2432"
     inkscape:cy="6.9939258"
     inkscape:window-width="2560"
     inkscape:window-height="1387"
     inkscape:window-x="0"
     inkscape:window-y="84"
     inkscape:window-maximized="0"
     inkscape:current-layer="svg1" />
  <path
     d="m 4222.2222,16817.778 q -833.3333,0 -1416.6666,-583.334 -583.3334,-583.333 -583.3334,-1416.666 0,-583.334 333.3334,-1097.222 333.3333,-513.889 888.8888,-736.112 L 7777.7778,11262.222 V 8762.2222 q -1500,1749.9998 -3486.1111,2680.5558 Q 2305.5556,12373.333 0,12373.333 v -2222.222 q 1888.8889,0 3430.5556,-777.7777 1541.6666,-777.7777 2791.6666,-2222.2222 l 1500,-1777.7778 Q 8055.5556,4984.4444 8500,4790 q 444.4444,-194.4444 944.4444,-194.4444 h 1111.1116 q 500,0 944.444,194.4444 444.444,194.4444 777.778,583.3333 l 1500,1777.7778 q 1250,1444.4445 2791.666,2222.2222 1541.667,777.7777 3430.556,777.7777 v 2222.222 q -2305.556,0 -4291.667,-930.555 -1986.111,-930.556 -3486.111,-2680.5558 v 2499.9998 l 4333.334,1722.222 q 555.555,222.223 888.888,736.112 333.334,513.888 333.334,1097.222 0,833.333 -583.334,1416.666 -583.333,583.334 -1416.666,583.334 H 7777.7778 v -555.556 q 0,-722.222 472.2222,-1194.444 472.2222,-472.222 1194.4444,-472.222 h 3333.3336 q 250,0 402.778,-152.778 152.777,-152.778 152.777,-402.778 0,-250 -152.777,-402.778 -152.778,-152.778 -402.778,-152.778 H 9444.4444 q -1166.6666,0 -1972.2222,805.556 -805.5555,805.556 -805.5555,1972.222 v 555.556 z M 10000,3484.4444 q -916.6667,0 -1569.4444,-652.7777 -652.7778,-652.7778 -652.7778,-1569.4445 0,-916.66664 652.7778,-1569.44442 Q 9083.3333,-960 10000,-960 q 916.667,0 1569.444,652.77778 652.778,652.77778 652.778,1569.44442 0,916.6667 -652.778,1569.4445 -652.777,652.7777 -1569.444,652.7777 z"
     id="path1"
     style="fill:#ddb444;fill-opacity:1;stroke-width:27.7778" />
</svg>
