<?xml version="1.0" encoding="UTF-8" standalone="no"?>
<svg
   width="16"
   height="16"
   viewBox="0 0 16 16"
   fill="none"
   version="1.1"
   id="svg18"
   sodipodi:docname="Page-1.svg"
   inkscape:version="1.4 (e7c3feb1, 2024-10-09)"
   xmlns:inkscape="http://www.inkscape.org/namespaces/inkscape"
   xmlns:sodipodi="http://sodipodi.sourceforge.net/DTD/sodipodi-0.dtd"
   xmlns="http://www.w3.org/2000/svg"
   xmlns:svg="http://www.w3.org/2000/svg">
  <sodipodi:namedview
     id="namedview18"
     pagecolor="#505050"
     bordercolor="#eeeeee"
     borderopacity="1"
     inkscape:showpageshadow="0"
     inkscape:pageopacity="0"
     inkscape:pagecheckerboard="0"
     inkscape:deskcolor="#505050"
     inkscape:zoom="15.390796"
     inkscape:cx="24.787542"
     inkscape:cy="24.462672"
     inkscape:window-width="2560"
     inkscape:window-height="1440"
     inkscape:window-x="0"
     inkscape:window-y="59"
     inkscape:window-maximized="0"
     inkscape:current-layer="svg18" />
  <mask
     id="mask0_436_676"
     maskUnits="userSpaceOnUse"
     x="0"
     y="0"
     width="12"
     height="17">
    <path
       d="M 7.449,0.728851 H 1.29084 c -0.597708,0 -1.086738,0.476869 -1.086738,1.059699 V 15.2114 c 0,0.5829 0.48903,1.0597 1.086738,1.0597 h 9.41836 c 0.5977,0 1.0867,-0.4768 1.0867,-1.0597 V 4.96766 Z"
       fill="#ffffff"
       id="path1" />
  </mask>
  <mask
     id="mask1_436_676"
     maskUnits="userSpaceOnUse"
     x="0"
     y="0"
     width="12"
     height="17">
    <path
       d="M 7.449,0.728851 H 1.29084 c -0.597708,0 -1.086738,0.476869 -1.086738,1.059699 V 15.2114 c 0,0.5829 0.48903,1.0597 1.086738,1.0597 h 9.41836 c 0.5977,0 1.0867,-0.4768 1.0867,-1.0597 V 4.96766 Z"
       fill="#ffffff"
       id="path3" />
  </mask>
  <mask
     id="mask2_436_676"
     maskUnits="userSpaceOnUse"
     x="0"
     y="0"
     width="12"
     height="17">
    <path
       d="M 7.449,0.728851 H 1.29084 c -0.597708,0 -1.086738,0.476869 -1.086738,1.059699 V 15.2114 c 0,0.5829 0.48903,1.0597 1.086738,1.0597 h 9.41836 c 0.5977,0 1.0867,-0.4768 1.0867,-1.0597 V 4.96766 Z"
       fill="#ffffff"
       id="path5" />
  </mask>
  <mask
     id="mask3_436_676"
     maskUnits="userSpaceOnUse"
     x="0"
     y="0"
     width="12"
     height="17">
    <path
       d="M 7.449,0.728851 H 1.29084 c -0.597708,0 -1.086738,0.476869 -1.086738,1.059699 V 15.2114 c 0,0.5829 0.48903,1.0597 1.086738,1.0597 h 9.41836 c 0.5977,0 1.0867,-0.4768 1.0867,-1.0597 V 4.96766 Z"
       fill="#ffffff"
       id="path7" />
  </mask>
  <mask
     id="mask4_436_676"
     maskUnits="userSpaceOnUse"
     x="0"
     y="0"
     width="12"
     height="17">
    <path
       d="M 7.449,0.728851 H 1.29084 c -0.597708,0 -1.086738,0.476869 -1.086738,1.059699 V 15.2114 c 0,0.5829 0.48903,1.0597 1.086738,1.0597 h 9.41836 c 0.5977,0 1.0867,-0.4768 1.0867,-1.0597 V 4.96766 Z"
       fill="#ffffff"
       id="path9" />
  </mask>
  <mask
     id="mask5_436_676"
     maskUnits="userSpaceOnUse"
     x="0"
     y="0"
     width="12"
     height="17">
    <path
       d="M 7.449,0.728851 H 1.29084 c -0.597708,0 -1.086738,0.476869 -1.086738,1.059699 V 15.2114 c 0,0.5829 0.48903,1.0597 1.086738,1.0597 h 9.41836 c 0.5977,0 1.0867,-0.4768 1.0867,-1.0597 V 4.96766 Z"
       fill="#ffffff"
       id="path11" />
  </mask>
  <mask
     id="mask6_436_676"
     maskUnits="userSpaceOnUse"
     x="0"
     y="0"
     width="12"
     height="17">
    <path
       d="M 7.449,0.728851 H 1.29084 c -0.597708,0 -1.086738,0.476869 -1.086738,1.059699 V 15.2114 c 0,0.5829 0.48903,1.0597 1.086738,1.0597 h 9.41836 c 0.5977,0 1.0867,-0.4768 1.0867,-1.0597 V 4.96766 Z"
       fill="#ffffff"
       id="path13" />
  </mask>
  <g
     id="g18"
     transform="matrix(1.029452,0,0,1.029452,1.823287,-0.75031678)">
    <g
       mask="url(#mask0_436_676)"
       id="g2">
      <path
         d="M 7.449,0.728851 H 1.29084 c -0.597708,0 -1.086738,0.476869 -1.086738,1.059699 V 15.2114 c 0,0.5829 0.48903,1.0597 1.086738,1.0597 h 9.41836 c 0.5977,0 1.0867,-0.4768 1.0867,-1.0597 V 4.96766 L 9.26022,3.20149 Z"
         fill="#0f9d58"
         id="path2" />
    </g>
    <g
       mask="url(#mask1_436_676)"
       id="g4">
      <path
         d="M 3.10205,8.32336 V 13.4453 H 8.89797 V 8.32336 Z M 5.63777,12.7388 H 3.82654 v -0.8831 h 1.81123 z m 0,-1.4129 H 3.82654 v -0.8831 h 1.81123 z m 0,-1.41298 H 3.82654 V 9.02983 H 5.63777 Z M 8.17348,12.7388 H 6.36226 v -0.8831 h 1.81122 z m 0,-1.4129 H 6.36226 v -0.8831 h 1.81122 z m 0,-1.41298 H 6.36226 V 9.02983 h 1.81122 z"
         fill="#f1f1f1"
         id="path4" />
    </g>
    <g
       mask="url(#mask2_436_676)"
       id="g6">
      <path
         d="M 7.76685,4.65768 11.7959,8.58564 V 4.96765 Z"
         fill="url(#paint0_linear_436_676)"
         id="path6"
         style="fill:url(#paint0_linear_436_676)" />
    </g>
    <g
       mask="url(#mask3_436_676)"
       id="g8">
      <path
         d="M 7.44897,0.728851 V 3.90796 c 0,0.58548 0.48632,1.0597 1.08674,1.0597 h 3.26019 z"
         fill="#87ceac"
         id="path8" />
    </g>
    <g
       mask="url(#mask4_436_676)"
       id="g10">
      <path
         d="m 1.29084,0.728851 c -0.597708,0 -1.086738,0.476869 -1.086738,1.059699 v 0.08831 c 0,-0.58283 0.48903,-1.0597 1.086738,-1.0597 H 7.449 V 0.728851 Z"
         fill="#ffffff"
         fill-opacity="0.2"
         id="path10" />
    </g>
    <g
       mask="url(#mask5_436_676)"
       id="g12">
      <path
         d="M 10.7092,16.1828 H 1.29084 c -0.597708,0 -1.086738,-0.4768 -1.086738,-1.0597 v 0.0883 c 0,0.5829 0.48903,1.0597 1.086738,1.0597 h 9.41836 c 0.5977,0 1.0867,-0.4768 1.0867,-1.0597 v -0.0883 c 0,0.5829 -0.489,1.0597 -1.0867,1.0597 z"
         fill="#263238"
         fill-opacity="0.2"
         id="path12" />
    </g>
    <g
       mask="url(#mask6_436_676)"
       id="g14">
      <path
         d="m 8.53571,4.96766 c -0.60042,0 -1.08674,-0.47422 -1.08674,-1.0597 v 0.08831 c 0,0.58548 0.48632,1.0597 1.08674,1.0597 H 11.7959 V 4.96766 Z"
         fill="#263238"
         fill-opacity="0.1"
         id="path14" />
    </g>
    <path
       d="M 7.449,0.728851 H 1.29084 c -0.597708,0 -1.086738,0.476869 -1.086738,1.059699 V 15.2114 c 0,0.5829 0.48903,1.0597 1.086738,1.0597 h 9.41836 c 0.5977,0 1.0867,-0.4768 1.0867,-1.0597 V 4.96766 Z"
       fill="url(#paint1_radial_436_676)"
       id="path15"
       style="fill:url(#paint1_radial_436_676)" />
  </g>
  <defs
     id="defs18">
    <linearGradient
       id="paint0_linear_436_676"
       x1="209.242"
       y1="38.383598"
       x2="209.242"
       y2="397.508"
       gradientUnits="userSpaceOnUse">
      <stop
         stop-color="#263238"
         stop-opacity="0.2"
         id="stop15" />
      <stop
         offset="1"
         stop-color="#263238"
         stop-opacity="0.02"
         id="stop16" />
    </linearGradient>
    <radialGradient
       id="paint1_radial_436_676"
       cx="0"
       cy="0"
       r="1"
       gradientUnits="userSpaceOnUse"
       gradientTransform="matrix(1869.17,0,0,1822.67,36.9276,31.4472)">
      <stop
         stop-color="white"
         stop-opacity="0.1"
         id="stop17" />
      <stop
         offset="1"
         stop-color="white"
         stop-opacity="0"
         id="stop18" />
    </radialGradient>
  </defs>
</svg>
