<?xml version="1.0" encoding="UTF-8" standalone="no"?>
<svg
   width="16"
   height="16"
   viewBox="0 0 16 16"
   fill="none"
   version="1.1"
   id="svg3"
   sodipodi:docname="typescript.svg"
   inkscape:version="1.4 (e7c3feb1, 2024-10-09)"
   xmlns:inkscape="http://www.inkscape.org/namespaces/inkscape"
   xmlns:sodipodi="http://sodipodi.sourceforge.net/DTD/sodipodi-0.dtd"
   xmlns="http://www.w3.org/2000/svg"
   xmlns:svg="http://www.w3.org/2000/svg">
  <sodipodi:namedview
     id="namedview3"
     pagecolor="#505050"
     bordercolor="#eeeeee"
     borderopacity="1"
     inkscape:showpageshadow="0"
     inkscape:pageopacity="0"
     inkscape:pagecheckerboard="0"
     inkscape:deskcolor="#505050"
     inkscape:zoom="14.584322"
     inkscape:cx="4.9025246"
     inkscape:cy="27.186728"
     inkscape:window-width="2560"
     inkscape:window-height="1440"
     inkscape:window-x="0"
     inkscape:window-y="59"
     inkscape:window-maximized="0"
     inkscape:current-layer="svg3" />
  <g
     clip-path="url(#clip0_362_4761)"
     id="g3"
     transform="matrix(1.1428571,0,0,1.1428571,3e-7,-0.57142825)">
    <path
       d="M 12.6328,0.5 H 1.36719 C 0.612111,0.5 0,1.11211 0,1.86719 V 13.1328 C 0,13.8879 0.612111,14.5 1.36719,14.5 H 12.6328 C 13.3879,14.5 14,13.8879 14,13.1328 V 1.86719 C 14,1.11211 13.3879,0.5 12.6328,0.5 Z"
       fill="#3178c6"
       id="path1" />
    <path
       d="M 12.6328,0.5 H 1.36719 C 0.612111,0.5 0,1.11211 0,1.86719 V 13.1328 C 0,13.8879 0.612111,14.5 1.36719,14.5 H 12.6328 C 13.3879,14.5 14,13.8879 14,13.1328 V 1.86719 C 14,1.11211 13.3879,0.5 12.6328,0.5 Z"
       fill="#3178c6"
       id="path2" />
    <path
       fill-rule="evenodd"
       clip-rule="evenodd"
       d="m 8.6663,11.6405 v 1.3689 c 0.22252,0.114 0.48571,0.1996 0.78955,0.2566 0.30385,0.057 0.62405,0.0856 0.96075,0.0856 0.3281,0 0.6397,-0.0314 0.935,-0.0942 0.2953,-0.0627 0.5542,-0.1661 0.7767,-0.3101 0.2226,-0.144 0.3987,-0.3322 0.5285,-0.5646 0.1298,-0.2325 0.1948,-0.5198 0.1948,-0.862 0,-0.2481 -0.0371,-0.4655 -0.1113,-0.6523 -0.0742,-0.1868 -0.1812,-0.3529 -0.321,-0.4983 C 12.2796,10.2246 12.1119,10.0941 11.9165,9.97863 11.7211,9.86313 11.5007,9.75405 11.2553,9.65141 11.0756,9.57725 10.9144,9.50525 10.7718,9.43539 10.6291,9.3655 10.5079,9.29421 10.408,9.22151 10.3082,9.14877 10.2311,9.07177 10.1769,8.99051 10.1227,8.90922 10.0956,8.81726 10.0956,8.71458 c 0,-0.09409 0.0243,-0.17894 0.0728,-0.25451 0.0485,-0.07558 0.117,-0.14044 0.2054,-0.19464 0.0884,-0.05416 0.1968,-0.09625 0.3252,-0.12619 0.1284,-0.02994 0.271,-0.0449 0.428,-0.0449 0.1141,0 0.2346,0.00856 0.3616,0.02565 0.1269,0.01712 0.2546,0.04351 0.383,0.07913 0.1284,0.03566 0.2532,0.08059 0.3744,0.13476 0.1213,0.05419 0.2332,0.11692 0.336,0.18823 V 7.24308 C 12.3737,7.16323 12.1462,7.10406 11.8994,7.06556 c -0.2468,-0.0385 -0.53,-0.05775 -0.8495,-0.05775 -0.3252,0 -0.6333,0.03495 -0.9243,0.10481 C 9.83459,7.18248 9.57854,7.29156 9.35741,7.43984 9.13631,7.58816 8.96159,7.77707 8.83321,8.00665 8.70483,8.2362 8.64062,8.51068 8.64062,8.83008 c 0,0.40781 0.11769,0.75573 0.35307,1.04377 0.23534,0.28805 0.59267,0.53185 1.07201,0.73145 0.1883,0.077 0.3637,0.1526 0.5263,0.2267 0.1627,0.0742 0.3032,0.1512 0.4215,0.231 0.1184,0.0799 0.2119,0.1669 0.2804,0.261 0.0684,0.0941 0.1027,0.201 0.1027,0.3208 0,0.0884 -0.0214,0.1704 -0.0642,0.2459 -0.0428,0.0756 -0.1077,0.1412 -0.1947,0.1968 -0.0871,0.0556 -0.1955,0.0991 -0.3253,0.1305 -0.1298,0.0314 -0.2817,0.047 -0.4557,0.047 -0.2967,0 -0.59058,-0.052 -0.8816,-0.1561 C 9.18411,12.0048 8.9145,11.8487 8.6663,11.6405 Z M 6.36508,8.26787 H 8.12109 V 7.14453 H 3.22656 v 1.12334 h 1.74743 v 5.00163 h 1.39109 z"
       fill="#ffffff"
       id="path3" />
  </g>
  <defs
     id="defs3">
    <clipPath
       id="clip0_362_4761">
      <rect
         width="14"
         height="14"
         fill="#ffffff"
         transform="translate(0,0.5)"
         id="rect3"
         x="0"
         y="0" />
    </clipPath>
  </defs>
</svg>
