<svg width="66" height="65" viewBox="0 0 66 65" fill="none" xmlns="http://www.w3.org/2000/svg">
<path d="M29.2956 0.612107C14.0848 2.26254 1.85004 14.4758 0.196688 29.3297C-1.45666 44.8438 7.47143 58.7074 21.0289 63.9888C22.0209 64.3189 23.0129 63.6587 23.0129 62.3384V57.057C23.0129 57.057 21.6902 57.3871 20.0369 57.3871C15.4075 57.3871 13.4235 53.426 13.0928 51.1154C12.7621 49.7951 12.1008 48.8048 11.1088 47.8145C10.1168 47.4845 9.78612 47.4845 9.78612 47.1544C9.78612 46.4942 10.7781 46.4942 11.1088 46.4942C13.0928 46.4942 14.7462 48.8048 15.4075 49.7951C17.0609 52.4358 19.0449 53.0959 20.0369 53.0959C21.3596 53.0959 22.3516 52.7658 23.0129 52.4358C23.3436 50.1252 24.3356 47.8145 26.3196 46.4942C18.7142 44.8438 13.0928 40.5526 13.0928 33.2907C13.0928 29.6598 14.7462 26.0288 17.0609 23.3881C16.7302 22.7279 16.3995 21.0775 16.3995 18.7669C16.3995 17.4465 16.3995 15.466 17.3915 13.4855C17.3915 13.4855 22.0209 13.4855 26.6503 17.7766C28.3036 17.1165 30.6183 16.7864 32.933 16.7864C35.2477 16.7864 37.5624 17.1165 39.5464 17.7766C43.8451 13.4855 48.8052 13.4855 48.8052 13.4855C49.4665 15.466 49.4665 17.4465 49.4665 18.7669C49.4665 21.4076 49.1358 22.7279 48.8052 23.3881C51.1199 26.0288 52.7732 29.3297 52.7732 33.2907C52.7732 40.5526 47.1518 44.8438 39.5464 46.4942C41.5304 48.1446 42.8531 51.1154 42.8531 54.0862V62.6685C42.8531 63.6587 43.8451 64.649 45.1678 64.3189C57.4026 59.3676 66 47.4845 66 33.6208C66 13.8156 49.1358 -1.6985 29.2956 0.612107Z" fill="black"/>
</svg>
