<?xml version="1.0" encoding="UTF-8" standalone="no"?>
<svg
   width="16"
   height="16"
   viewBox="0 0 16 16"
   fill="none"
   version="1.1"
   id="svg1"
   sodipodi:docname="nextjs.svg"
   inkscape:version="1.4 (e7c3feb1, 2024-10-09)"
   xmlns:inkscape="http://www.inkscape.org/namespaces/inkscape"
   xmlns:sodipodi="http://sodipodi.sourceforge.net/DTD/sodipodi-0.dtd"
   xmlns="http://www.w3.org/2000/svg"
   xmlns:svg="http://www.w3.org/2000/svg">
  <defs
     id="defs1" />
  <sodipodi:namedview
     id="namedview1"
     pagecolor="#505050"
     bordercolor="#eeeeee"
     borderopacity="1"
     inkscape:showpageshadow="0"
     inkscape:pageopacity="0"
     inkscape:pagecheckerboard="0"
     inkscape:deskcolor="#505050"
     inkscape:zoom="7.8940156"
     inkscape:cx="41.74048"
     inkscape:cy="15.898119"
     inkscape:window-width="2560"
     inkscape:window-height="1440"
     inkscape:window-x="0"
     inkscape:window-y="59"
     inkscape:window-maximized="0"
     inkscape:current-layer="svg1" />
  <path
     d="m 7.476047,0.00430951 c -0.0344,0.00312 -0.1438857,0.014069 -0.2424229,0.021886 C 4.9610983,0.23105241 2.8324582,1.4570753 1.4842639,3.3414525 0.73353017,4.3891897 0.25337358,5.5776811 0.07194626,6.8365383 0.00782114,7.2759669 1e-6,7.4057612 1e-6,8.0015669 1e-6,8.597373 0.00782114,8.727167 0.07194626,9.166596 0.50674616,12.17063 2.6447668,14.69463 5.5444812,15.62983 c 0.5192572,0.167314 1.0666629,0.281371 1.6891429,0.350286 0.2424229,0.02651 1.2903315,0.02651 1.5327544,0 1.07448,-0.118857 1.9847425,-0.3848 2.8825375,-0.842972 0.1376,-0.07028 0.164228,-0.08914 0.145371,-0.1048 -0.01246,-0.0094 -0.598983,-0.795885 -1.302788,-1.746743 l -1.279372,-1.728 -1.6031314,-2.37224 C 6.7268812,7.8811555 6.0011784,6.8146412 5.9949155,6.8146412 c -0.00625,-0.00157 -0.012514,1.0524343 -0.015634,2.3394398 -0.0047,2.253463 -0.00626,2.344092 -0.034411,2.397349 -0.040663,0.07657 -0.071943,0.107886 -0.1376343,0.142286 -0.050046,0.02503 -0.09384,0.02971 -0.3300114,0.02971 H 5.2066526 l -0.071954,-0.04537 c -0.046914,-0.02971 -0.081326,-0.0688 -0.1047886,-0.114171 l -0.032846,-0.0704 0.00313,-3.1353715 0.0047,-3.136983 0.04848,-0.060983 c 0.025029,-0.032846 0.078206,-0.075063 0.1157372,-0.095394 0.064126,-0.03128 0.089154,-0.0344 0.3597257,-0.0344 0.3190628,0 0.37224,0.012503 0.4551314,0.1032114 0.023463,0.025017 0.8914972,1.3323544 1.9300115,2.9070973 1.0385143,1.5747428 2.4586512,3.7249368 3.1562052,4.7804798 l 1.266846,1.918857 0.06411,-0.04228 c 0.567772,-0.369029 1.168343,-0.894515 1.643772,-1.441829 1.012,-1.161829 1.664228,-2.578629 1.883086,-4.089291 0.06423,-0.439429 0.072,-0.569223 0.072,-1.165029 0,-0.5958057 -0.0078,-0.7256 -0.072,-1.1650286 -0.43474,-3.0040603 -2.572798,-5.5280261 -5.472478,-6.46318049 -0.5114396,-0.16576 -1.055714,-0.27992 -1.6656911,-0.34872 C 8.6396927,0.00899521 7.6058641,-0.00820479 7.476047,0.00430951 Z m 3.275074,4.83838869 c 0.07508,0.037532 0.13608,0.1094629 0.157966,0.1845258 0.01251,0.040663 0.01565,0.9101257 0.01251,2.8695658 l -0.0047,2.8116682 -0.495806,-0.76 L 9.9237309,9.188493 V 7.1446069 c 0,-1.3214058 0.00626,-2.0642172 0.015646,-2.1001829 0.025029,-0.087566 0.07976,-0.1563772 0.1548341,-0.19704 0.06413,-0.032834 0.08759,-0.035966 0.333143,-0.035966 0.231474,0 0.272137,0.00313 0.323748,0.03128 z"
     fill="#000000"
     id="path1"
     style="stroke-width:1.14286" />
</svg>
