<?xml version="1.0" encoding="UTF-8" standalone="no"?>
<svg
   width="16"
   height="16"
   viewBox="0 0 16 16"
   fill="none"
   version="1.1"
   id="svg1"
   sodipodi:docname="docker.svg"
   inkscape:version="1.4 (e7c3feb1, 2024-10-09)"
   xmlns:inkscape="http://www.inkscape.org/namespaces/inkscape"
   xmlns:sodipodi="http://sodipodi.sourceforge.net/DTD/sodipodi-0.dtd"
   xmlns="http://www.w3.org/2000/svg"
   xmlns:svg="http://www.w3.org/2000/svg">
  <sodipodi:namedview
     id="namedview1"
     pagecolor="#505050"
     bordercolor="#eeeeee"
     borderopacity="1"
     inkscape:showpageshadow="0"
     inkscape:pageopacity="0"
     inkscape:pagecheckerboard="0"
     inkscape:deskcolor="#505050"
     inkscape:zoom="10.138769"
     inkscape:cx="21.353676"
     inkscape:cy="16.619374"
     inkscape:window-width="2560"
     inkscape:window-height="1440"
     inkscape:window-x="0"
     inkscape:window-y="59"
     inkscape:window-maximized="0"
     inkscape:current-layer="svg1" />
  <g
     clip-path="url(#clip0_362_4976)"
     id="g1"
     transform="matrix(0.800008,0,0,0.800008,0,0.97700577)">
    <path
       d="M 19.6747,7.54318 C 19.1844,7.21313 17.896,7.07217 16.9593,7.32447 16.9088,6.39146 16.4277,5.60522 15.5476,4.91921 L 15.2218,4.7005 15.0046,5.02843 C 14.5778,5.67636 14.398,6.53955 14.4617,7.3242 14.512,7.80764 14.6802,8.3511 15.0046,8.74541 13.7855,9.45257 12.6618,9.29205 7.6852,9.29205 H 0.00160292 C -0.0208761,10.4157 0.15975,12.5774 1.53441,14.3371 c 0.1518,0.1944 0.31841,0.3824 0.49903,0.5636 1.11761,1.1192 2.80618,1.9398 5.33124,1.9422 3.85212,0.0034 7.15252,-2.0787 9.16012,-7.11317 0.6606,0.01084 2.4044,0.11847 3.2578,-1.5307 0.0209,-0.02776 0.2172,-0.43741 0.2172,-0.43741 L 19.6745,7.54291 Z M 5.01602,6.51549 H 2.85538 v 2.16063 h 2.16064 z m 2.79136,0 H 5.64675 v 2.16063 h 2.16063 z m 2.79142,0 H 8.43812 v 2.16063 h 2.16068 z m 2.7913,0 h -2.1606 v 2.16063 h 2.1606 z m -11.16545,0 H 0.0640153 V 8.67612 H 2.22465 Z M 5.01602,3.78653 H 2.85538 v 2.16063 h 2.16064 z m 2.79136,0 H 5.64675 v 2.16063 h 2.16063 z m 2.79142,0 H 8.43812 v 2.16063 h 2.16068 z m 0,-2.72922 H 8.43812 v 2.16063 h 2.16068 z"
       fill="#1d63ed"
       id="path1" />
  </g>
  <defs
     id="defs1">
    <clipPath
       id="clip0_362_4976">
      <rect
         width="20"
         height="16"
         fill="#ffffff"
         transform="translate(0,0.5)"
         id="rect1"
         x="0"
         y="0" />
    </clipPath>
  </defs>
</svg>
