<?xml version="1.0" encoding="UTF-8" standalone="no"?>
<svg
   width="16"
   height="16"
   viewBox="0 0 16 16"
   fill="none"
   version="1.1"
   id="svg1"
   sodipodi:docname="postman.svg"
   inkscape:version="1.4 (e7c3feb1, 2024-10-09)"
   xmlns:inkscape="http://www.inkscape.org/namespaces/inkscape"
   xmlns:sodipodi="http://sodipodi.sourceforge.net/DTD/sodipodi-0.dtd"
   xmlns="http://www.w3.org/2000/svg"
   xmlns:svg="http://www.w3.org/2000/svg">
  <sodipodi:namedview
     id="namedview1"
     pagecolor="#505050"
     bordercolor="#eeeeee"
     borderopacity="1"
     inkscape:showpageshadow="0"
     inkscape:pageopacity="0"
     inkscape:pagecheckerboard="0"
     inkscape:deskcolor="#505050"
     inkscape:zoom="10.127277"
     inkscape:cx="26.413812"
     inkscape:cy="29.672338"
     inkscape:window-width="2560"
     inkscape:window-height="1440"
     inkscape:window-x="0"
     inkscape:window-y="59"
     inkscape:window-maximized="0"
     inkscape:current-layer="svg1" />
  <g
     clip-path="url(#clip0_362_4832)"
     id="g1"
     transform="matrix(1.171308,0,0,1.171308,-0.19917352,-0.78492248)">
    <path
       d="M 7.8696,0.736902 C 4.12837,0.25802 0.706171,2.89702 0.226306,6.63287 -0.253559,10.3687 2.38914,13.7839 6.13053,14.2632 9.87192,14.7425 13.2943,12.1034 13.7738,8.36867 14.2533,4.63389 11.6108,1.21651 7.8696,0.736902 Z M 9.2759,4.99066 C 9.14919,4.99245 9.02818,5.04352 8.93862,5.133 L 6.4043,7.66254 5.864,7.12278 C 8.36067,4.63624 8.81087,4.6124 9.2759,4.99066 Z M 6.50745,7.75286 9.03452,5.22947 C 9.10063,5.16362 9.1902,5.12666 9.28358,5.12666 c 0.09339,0 0.18296,0.03696 0.24907,0.10281 C 9.56671,5.26348 9.59341,5.30411 9.61111,5.34883 9.62882,5.39356 9.63715,5.44143 9.63559,5.4895 9.63403,5.53755 9.62261,5.58479 9.60205,5.62828 9.58148,5.67176 9.55219,5.71058 9.51601,5.74232 L 6.84183,8.08723 Z M 6.69544,8.14666 6.06938,8.28142 C 6.06196,8.28302 6.05422,8.28215 6.04733,8.27902 6.04042,8.27587 6.03474,8.27057 6.03112,8.26392 6.02749,8.25727 6.02612,8.24962 6.02721,8.24213 6.0283,8.23463 6.0318,8.22769 6.03717,8.22234 L 6.40412,7.85582 Z M 5.09969,7.88599 5.76701,7.21979 6.26715,7.71908 5.14059,7.96114 C 5.13116,7.96313 5.12136,7.96198 5.11261,7.95799 5.10387,7.95397 5.09668,7.94723 5.09208,7.93878 5.08748,7.93034 5.08575,7.92064 5.08711,7.91113 5.08848,7.90161 5.0929,7.8928 5.09969,7.88599 Z M 3.02498,11.3296 C 3.01685,11.3286 3.00916,11.3254 3.00279,11.3203 2.99641,11.3152 2.99162,11.3084 2.98896,11.3006 2.98629,11.2929 2.98585,11.2846 2.98771,11.2766 2.98958,11.2687 2.99365,11.2614 2.99947,11.2557 l 0.53831,-0.5376 0.69537,0.6942 z M 4.40541,10.615 c -0.02565,0.0132 -0.04614,0.0346 -0.05826,0.0608 -0.01212,0.0261 -0.01518,0.0556 -0.00869,0.0837 l 0.11544,0.4922 c 0.00294,0.015 0.00108,0.0305 -0.00536,0.0444 C 4.4421,11.3099 4.43144,11.3214 4.41807,11.3288 4.40471,11.3362 4.38933,11.3392 4.37415,11.3374 4.35898,11.3355 4.34476,11.329 4.33357,11.3186 L 3.63495,10.6211 5.77534,8.4841 6.81143,8.26191 7.30867,8.75832 C 6.59375,9.38297 5.61701,10.0076 4.40541,10.6144 Z M 7.40909,8.66709 6.93157,8.19056 9.60612,5.84528 C 9.63094,5.82353 9.6535,5.79932 9.67344,5.77302 9.58893,6.53858 8.51846,7.61774 7.40981,8.66654 Z M 9.48995,4.99518 C 9.30244,4.80627 9.19493,4.55258 9.18968,4.28669 9.18444,4.0208 9.28188,3.76309 9.46181,3.56697 9.64174,3.37085 9.89035,3.25137 10.1561,3.23329 10.4219,3.21521 10.6845,3.29991 10.8894,3.46984 L 9.97144,4.38642 C 9.96507,4.39272 9.96001,4.40021 9.95656,4.40848 9.95311,4.41673 9.95132,4.42561 9.95132,4.43456 c 0,0.00894 0.00179,0.01781 0.00524,0.02608 0.00345,0.00826 0.00851,0.01575 0.01488,0.02205 L 10.6811,5.19136 C 10.4871,5.28694 10.268,5.31938 10.0546,5.28409 9.84112,5.24881 9.64416,5.14756 9.4914,4.99463 Z m 1.46715,0 c -0.047,0.0467 -0.0985,0.08869 -0.1537,0.12537 L 10.1158,4.4341 10.9885,3.56305 c 0.1805,0.19677 0.2779,0.45547 0.272,0.72217 -0.006,0.26671 -0.1148,0.52083 -0.3038,0.70941 z"
       fill="#ff6c37"
       id="path1" />
  </g>
  <defs
     id="defs1">
    <clipPath
       id="clip0_362_4832">
      <rect
         width="14"
         height="13.7586"
         fill="#ffffff"
         transform="translate(0,0.620728)"
         id="rect1"
         x="0"
         y="0" />
    </clipPath>
  </defs>
</svg>
