<?xml version="1.0" encoding="UTF-8" standalone="no"?>
<svg
   width="16"
   height="16"
   viewBox="0 0 16 16"
   fill="none"
   version="1.1"
   id="svg1"
   sodipodi:docname="github.svg"
   inkscape:version="1.4 (e7c3feb1, 2024-10-09)"
   xmlns:inkscape="http://www.inkscape.org/namespaces/inkscape"
   xmlns:sodipodi="http://sodipodi.sourceforge.net/DTD/sodipodi-0.dtd"
   xmlns="http://www.w3.org/2000/svg"
   xmlns:svg="http://www.w3.org/2000/svg">
  <defs
     id="defs1" />
  <sodipodi:namedview
     id="namedview1"
     pagecolor="#505050"
     bordercolor="#eeeeee"
     borderopacity="1"
     inkscape:showpageshadow="0"
     inkscape:pageopacity="0"
     inkscape:pagecheckerboard="0"
     inkscape:deskcolor="#505050"
     inkscape:zoom="8.4393978"
     inkscape:cx="32.526018"
     inkscape:cy="34.303396"
     inkscape:window-width="2560"
     inkscape:window-height="1440"
     inkscape:window-x="0"
     inkscape:window-y="59"
     inkscape:window-maximized="0"
     inkscape:current-layer="svg1" />
  <path
     d="M 7.1019764,0.28420057 C 3.4145035,0.68501281 0.44849416,3.6510221 0.04768193,7.2583257 -0.35313031,11.025987 1.8112565,14.392763 5.0979106,15.675398 5.3384,15.755587 5.5788894,15.59521 5.5788894,15.274551 V 13.99201 c 0,0 -0.3206494,0.08009 -0.7214588,0.08009 -1.1222777,0 -1.6032565,-0.961882 -1.6834165,-1.523012 -0.08016,-0.320658 -0.2404894,-0.561223 -0.4809694,-0.801694 -0.2404894,-0.08009 -0.3206494,-0.08009 -0.3206494,-0.160282 0,-0.160377 0.24048,-0.160377 0.3206494,-0.160377 0.4809694,0 0.8817788,0.56113 1.0421082,0.801695 0.4008094,0.641223 0.8817883,0.8016 1.1222777,0.8016 0.3206494,0 0.5611294,-0.08019 0.7214588,-0.160377 0.08016,-0.561129 0.3206494,-1.122259 0.8016188,-1.442918 -1.843727,-0.400752 -3.2064941,-1.4429167 -3.2064941,-3.2064557 0,-0.8817882 0.4008094,-1.7635765 0.9619482,-2.4048753 -0.08016,-0.1603294 -0.16032,-0.5611388 -0.16032,-1.1222776 0,-0.3206494 0,-0.8016188 0.24048,-1.2825977 0,0 1.1222777,0 2.2445553,1.0421177 C 6.861487,4.292317 7.4226259,4.212157 7.9837647,4.212157 c 0.5611294,0 1.1222682,0.08016 1.603247,0.2404894 1.0420703,-1.0421177 2.2445173,-1.0421177 2.2445173,-1.0421177 0.160377,0.4809789 0.160377,0.9619483 0.160377,1.2825977 0,0.6412988 -0.08019,0.9619482 -0.160377,1.1222776 0.56113,0.6412988 0.961977,1.4429177 0.961977,2.4048753 0,1.763539 -1.36273,2.8057037 -3.2064943,3.2064557 0.4809413,0.400848 0.8016003,1.122353 0.8016003,1.843765 v 2.084235 c 0,0.240471 0.24047,0.480942 0.561129,0.400848 C 13.915765,14.553139 16,11.667304 16,8.3004433 16,3.4906927 11.911718,-0.2769358 7.1019764,0.28420057 Z"
     fill="#000000"
     id="path1"
     style="stroke-width:0.941176" />
</svg>
