<?xml version="1.0" encoding="UTF-8" standalone="no"?>
<svg
   width="16"
   height="16"
   viewBox="0 0 16 16"
   fill="none"
   version="1.1"
   id="svg2"
   sodipodi:docname="google analytics.svg"
   inkscape:version="1.4 (e7c3feb1, 2024-10-09)"
   xmlns:inkscape="http://www.inkscape.org/namespaces/inkscape"
   xmlns:sodipodi="http://sodipodi.sourceforge.net/DTD/sodipodi-0.dtd"
   xmlns="http://www.w3.org/2000/svg"
   xmlns:svg="http://www.w3.org/2000/svg">
  <sodipodi:namedview
     id="namedview2"
     pagecolor="#505050"
     bordercolor="#eeeeee"
     borderopacity="1"
     inkscape:showpageshadow="0"
     inkscape:pageopacity="0"
     inkscape:pagecheckerboard="0"
     inkscape:deskcolor="#505050"
     inkscape:zoom="4.9928119"
     inkscape:cx="-5.3076303"
     inkscape:cy="81.817622"
     inkscape:window-width="2560"
     inkscape:window-height="1440"
     inkscape:window-x="0"
     inkscape:window-y="59"
     inkscape:window-maximized="0"
     inkscape:current-layer="svg2" />
  <g
     clip-path="url(#clip0_362_4689)"
     id="g2"
     transform="translate(1.0000229,-0.5)">
    <path
       fill-rule="evenodd"
       clip-rule="evenodd"
       d="m 13.9999,14.4978 c 0.0058,1.0985 -0.8523,1.993 -1.9158,1.9989 -0.079,7e-4 -0.1588,-0.0039 -0.2372,-0.0138 C 10.86,16.3322 10.1371,15.4456 10.1612,14.4162 V 2.58043 c -0.0235,-1.03076 0.7014,-1.917328 1.6889,-2.066753 1.0564,-0.127681 2.0134,0.652903 2.1371,1.743563 0.0089,0.08031 0.0133,0.16061 0.0127,0.24154 z"
       fill="#f9ab00"
       id="path1" />
    <path
       fill-rule="evenodd"
       clip-rule="evenodd"
       d="m 1.91966,12.5364 c 1.06025,0 1.91966,0.8872 1.91966,1.9818 0,1.0946 -0.85941,1.9819 -1.91966,1.9819 C 0.859401,16.5001 0,15.6128 0,14.5182 0,13.4236 0.859401,12.5364 1.91966,12.5364 Z M 6.97034,6.53029 C 5.90501,6.59082 5.07872,7.51295 5.10359,8.61413 V 13.937 c 0,1.4447 0.61586,2.3215 1.51799,2.5084 1.04115,0.2179 2.05547,-0.4766 2.26651,-1.5514 0.02613,-0.1317 0.03887,-0.2652 0.03822,-0.3995 V 8.52201 C 8.92821,7.42348 8.06756,6.53158 7.00349,6.52966 c -0.01084,0 -0.02232,0 -0.03315,6.8e-4 z"
       fill="#e37400"
       id="path2" />
  </g>
  <defs
     id="defs2">
    <clipPath
       id="clip0_362_4689">
      <rect
         width="14"
         height="16"
         fill="#ffffff"
         transform="translate(0,0.5)"
         id="rect2"
         x="0"
         y="0" />
    </clipPath>
  </defs>
</svg>
