<?xml version="1.0" encoding="UTF-8" standalone="no"?>
<!-- Created with Inkscape (http://www.inkscape.org/) -->

<svg
   version="1.1"
   id="svg1"
   width="64.087997"
   height="64"
   viewBox="0 0 64.087998 64"
   sodipodi:docname="icon_api.svg"
   inkscape:version="1.4 (e7c3feb1, 2024-10-09)"
   xmlns:inkscape="http://www.inkscape.org/namespaces/inkscape"
   xmlns:sodipodi="http://sodipodi.sourceforge.net/DTD/sodipodi-0.dtd"
   xmlns="http://www.w3.org/2000/svg"
   xmlns:svg="http://www.w3.org/2000/svg">
  <sodipodi:namedview
     id="namedview1"
     pagecolor="#505050"
     bordercolor="#eeeeee"
     borderopacity="1"
     inkscape:showpageshadow="0"
     inkscape:pageopacity="0"
     inkscape:pagecheckerboard="0"
     inkscape:deskcolor="#505050"
     inkscape:zoom="16.505247"
     inkscape:cx="50.862615"
     inkscape:cy="37.382053"
     inkscape:window-width="2560"
     inkscape:window-height="1387"
     inkscape:window-x="0"
     inkscape:window-y="84"
     inkscape:window-maximized="0"
     inkscape:current-layer="svg1" />
  <defs
     id="defs1" />
  <g
     id="g1"
     transform="matrix(1.7544456,0,0,1.7544456,-8.594013,-2.7923182)"
     style="fill:#000000;fill-opacity:1;stroke:none">
    <path
       style="fill:#000000;stroke:none;fill-opacity:1"
       d="m 10.420514,11.815384 c -5.3882491,0.469852 -7.1043491,7.727462 -3.9381451,11.404813 2.657963,3.087059 6.8507681,2.461854 10.5022481,2.461854 v 2.871795 H 13.37436 c -0.479442,7.71e-4 -1.100312,-0.0058 -1.34131,0.495916 -0.42903,0.893147 0.29338,2.277597 -0.219943,3.082304 -0.243212,0.38127 -0.879856,0.52804 -1.203799,0.866795 -1.0340521,1.081327 -1.1168171,2.854179 -0.161823,4.006205 1.809021,2.182249 5.42323,0.770072 5.303133,-2.05122 -0.0353,-0.829202 -0.406227,-1.65169 -1.064641,-2.171952 -0.283324,-0.223876 -0.784043,-0.340861 -0.981132,-0.649828 -0.267201,-0.418877 -0.08433,-1.368537 -0.08433,-1.855143 h 3.446154 c 0.498681,0 1.086901,0.09624 1.441342,-0.337132 0.287151,-0.351099 0.199683,-0.88114 0.199683,-1.303894 v -2.953846 h 3.446154 v 4.266667 c 0,0.621765 0.142142,1.442911 -0.02608,2.042418 -0.115253,0.410727 -0.896822,0.629126 -1.203419,0.91909 -0.790191,0.747319 -1.090848,1.887936 -0.847989,2.946184 0.689249,3.003383 5.494903,2.905667 5.837606,-0.246153 0.111869,-1.028852 -0.119396,-1.974094 -0.889521,-2.700031 -0.306643,-0.28905 -1.088391,-0.508934 -1.203483,-0.91909 -0.168226,-0.599504 -0.02608,-1.420653 -0.02608,-2.042418 v -4.266667 h 3.446154 v 3.035898 c 0,0.413163 -0.08098,0.945377 0.217663,1.280468 0.32641,0.366246 0.901999,0.278506 1.341311,0.278506 h 3.528206 c 0,0.486604 0.18287,1.436268 -0.08433,1.855143 -0.197171,0.309095 -0.697837,0.425691 -0.981135,0.649828 -0.643695,0.509269 -1.030066,1.359738 -1.064638,2.171952 -0.12008,2.820936 3.497556,4.22932 5.303132,2.05122 0.957112,-1.154583 0.872844,-2.924642 -0.161824,-4.006205 -0.322706,-0.337333 -1.13478,-0.549702 -1.262044,-1.007472 -0.243382,-0.875451 0.484996,-2.734423 -0.519975,-3.258752 -0.383576,-0.200125 -0.973415,-0.09674 -1.393289,-0.09674 h -3.2 v -2.953846 c 2.107562,0 4.411464,0.25624 6.482052,-0.181385 5.343469,-1.129367 7.724479,-7.481388 4.559733,-11.880154 C 39.262074,12.586663 38.18764,11.695555 37.00513,11.208548 36.449058,10.979534 35.341779,10.915537 34.912757,10.535423 34.557476,10.220645 34.422731,9.5178499 34.178222,9.1076919 33.675092,8.2636989 32.98792,7.5544313 32.164104,7.0189923 31.305,6.4606163 30.236455,6.0677633 29.210258,5.9970873 28.723381,5.9635573 27.863909,6.1834153 27.431847,5.9735373 26.861693,5.6965713 26.398269,4.6430083 25.927891,4.1878451 24.837361,3.1325916 23.512844,2.416914 22.071796,1.9713186 17.660294,0.60720836 12.853553,3.0474354 11.066478,7.2205123 10.416204,8.7389939 10.40723,10.210789 10.420514,11.815384 m 1.887179,1.312821 c -1.324118,-5.5462167 3.320208,-11.2209239 9.189744,-9.5648617 1.393941,0.3932943 2.713264,1.1449094 3.656283,2.262297 0.402892,0.477387 0.894844,1.783892 1.44837,2.0252606 0.427967,0.186619 1.321927,-0.1640346 1.787655,-0.2061396 0.889671,-0.08043 1.9624,0.2232796 2.707692,0.6997766 0.874109,0.558854 1.519221,1.291824 1.94359,2.2400771 0.186143,0.415935 0.217378,1.288972 0.622854,1.544286 0.454407,0.286122 1.333827,0.199198 1.864326,0.334347 1.125235,0.286661 2.183952,1.003042 2.915733,1.895726 2.503708,3.054217 1.284242,7.579382 -2.259323,9.164103 -1.545658,0.691236 -3.439749,0.435897 -5.08718,0.435897 H 21.66154 13.866668 c -1.565414,0 -3.171285,0.15795 -4.5948721,-0.628996 -3.033371,-1.676823 -3.761978,-6.002479 -1.22754,-8.471352 1.225393,-1.193693 2.6907751,-1.342982 4.2634371,-1.730421 m 1.066667,7.876923 c 0.382606,0 1.184612,0.15323 1.501361,-0.08433 0.572253,-0.429192 0.274584,-1.654269 0.900918,-2.046725 0.630644,-0.395155 2.272187,-0.08433 3.013106,-0.08433 0.07294,0.493925 0.35164,1.940906 0.843051,2.165876 0.363238,0.166291 0.977718,0.04951 1.372333,0.04951 -0.279139,-1.890132 -1.351653,-3.861494 -1.994492,-5.661539 -0.286511,-0.802273 -0.491346,-1.995793 -0.993542,-2.681608 -0.214471,-0.292889 -1.11608,-0.277592 -1.424312,-0.140678 -0.508916,0.226055 -0.774334,1.666993 -0.949161,2.165876 -0.729009,2.080291 -1.761212,4.174054 -2.269262,6.317949 m 8.369231,0 h 1.476923 v -2.789744 c 0.866286,0 1.778984,0.07765 2.625641,-0.144413 1.965122,-0.515415 2.615843,-3.206518 1.28585,-4.688953 -0.812948,-0.906127 -2.133551,-0.910224 -3.255081,-0.910224 -0.418296,0 -1.772451,-0.217613 -2.049002,0.131561 -0.322785,0.407549 -0.08433,1.73736 -0.08433,2.247926 v 6.153847 m 7.05641,-8.533334 v 8.533334 h 1.476924 v -6.153848 l -0.08433,-2.247926 -1.392594,-0.131561 m -5.579487,4.43077 v -3.117949 c 0.77202,0 1.768905,-0.160407 2.458246,0.264831 0.898938,0.554535 0.852401,2.157462 -0.07907,2.652737 -0.677136,0.360041 -1.638362,0.200381 -2.379172,0.200381 m -5.989744,-2.625641 1.066667,3.282051 h -2.215385 l 1.148718,-3.282051 m -4.758974,19.560494 c 1.648336,-0.368692 2.211532,2.159062 0.574359,2.536879 -1.617417,0.373258 -2.19219,-2.175012 -0.574359,-2.536879 m 10.25641,-0.0052 c 1.715913,-0.301435 2.130056,2.313151 0.410257,2.57037 -1.599636,0.239245 -2.028108,-2.286166 -0.410257,-2.57037 m 10.17436,0.0049 c 1.681761,-0.363702 2.17219,2.224509 0.492307,2.549857 -1.591233,0.308178 -2.071832,-2.208266 -0.492307,-2.549857 z"
       id="path1" />
  </g>
  <path
     style="fill:#000000;stroke:none;stroke-width:0;stroke-linecap:round;stroke-linejoin:round;stroke-miterlimit:4.8;fill-opacity:1;stroke-dasharray:none"
     d="M 12.632347,63.863281 C 11.704481,63.649204 10.929905,63.235935 10.255073,62.594909 9.2094141,61.601637 8.692104,60.492435 8.6197761,59.088554 8.5544799,57.821165 8.8769156,56.702972 9.6031022,55.67842 c 0.3704489,-0.522654 0.7061008,-0.808134 1.4236948,-1.210891 1.143965,-0.642061 1.391402,-0.997765 1.441086,-2.071637 0.01728,-0.373414 -0.01361,-1.019836 -0.07813,-1.635125 -0.238088,-2.270549 0.07717,-3.08738 1.290697,-3.344231 0.21664,-0.04585 1.492568,-0.06795 3.922995,-0.06795 h 3.601932 v -2.542725 -2.542725 l -4.104755,0.01323 c -4.182892,0.01348 -4.598559,-0.0022 -6.195,-0.23404 C 8.2266866,41.653317 5.9655049,40.724373 4.2141993,39.293329 3.9758076,39.098532 3.5021706,38.647362 3.1616729,38.290729 1.5030572,36.553517 0.44191706,34.188834 0.11994847,31.512441 0.0346417,30.803321 0.03613856,29.047648 0.12266662,28.324327 0.62710333,24.107545 2.8946742,20.585479 6.1626647,18.942801 6.9828197,18.530544 8.3661204,18.124955 9.3965079,17.994625 l 0.2781946,-0.03519 0.040931,-1.588129 c 0.070888,-2.750471 0.2940215,-4.205621 0.8984935,-5.859499 0.411015,-1.1245612 1.162248,-2.537172 1.884893,-3.5443275 2.690606,-3.7499185 6.715476,-6.17249089 11.341884,-6.82668904 0.722438,-0.10215647 2.98988,-0.10140328 3.726088,0.001238 2.982723,0.41584663 5.91146,1.66468404 8.239804,3.51351974 0.880192,0.698922 1.3623,1.2231249 2.098707,2.2819561 0.77959,1.1209187 1.190269,1.564694 1.637472,1.7694301 0.282799,0.1294697 0.400293,0.1454652 1.03301,0.1406298 0.392654,-0.003 0.972925,-0.028971 1.289491,-0.057713 0.728483,-0.066141 1.447721,0.00664 2.423472,0.2452208 2.148954,0.5254518 4.008113,1.6050606 5.553507,3.224907 0.950414,0.996202 1.510011,1.84701 1.96018,2.980244 0.643086,1.618874 0.827332,1.753059 3.155824,2.298364 1.439476,0.337107 2.289987,0.712247 3.477505,1.53384 2.581943,1.786336 4.432149,4.468197 5.212713,7.555786 0.310961,1.230033 0.413541,2.211298 0.373675,3.57462 -0.04474,1.529967 -0.242414,2.6499 -0.716512,4.059316 -0.257342,0.76503 -1.056155,2.372958 -1.528084,3.075872 -2.072298,3.086594 -5.085806,5.036817 -8.783236,5.684165 -1.814556,0.317694 -3.635841,0.377373 -8.357198,0.273845 l -2.468912,-0.05414 v 2.617811 2.617811 l 3.773199,-0.01323 c 3.436849,-0.01205 3.80133,-0.0039 4.088772,0.09159 0.42557,0.141351 0.80554,0.51784 0.988146,0.979089 0.12878,0.325293 0.142191,0.454173 0.144489,1.38855 0.0014,0.566486 -0.0215,1.452568 -0.05088,1.96907 -0.07109,1.249883 -0.01291,1.546593 0.378928,1.932693 0.155578,0.153299 0.581349,0.454056 0.946157,0.668348 0.79408,0.466452 1.090749,0.728945 1.477677,1.30745 1.370887,2.049646 1.17554,4.783491 -0.466156,6.523774 -0.737398,0.781679 -1.587714,1.275728 -2.597143,1.508987 -0.480984,0.111146 -0.685148,0.126517 -1.309386,0.09859 -0.875753,-0.03918 -1.410072,-0.175326 -2.193634,-0.558932 -1.103063,-0.540028 -1.856552,-1.282543 -2.397499,-2.362594 -0.782718,-1.562767 -0.697999,-3.400561 0.230369,-4.997364 0.125594,-0.216022 0.446465,-0.611581 0.713047,-0.879021 0.387906,-0.389154 0.611205,-0.552693 1.118236,-0.818968 0.348448,-0.182994 0.722627,-0.42153 0.83151,-0.530083 0.377098,-0.375956 0.451882,-0.957123 0.350449,-2.723452 l -0.04248,-0.739696 -3.885559,-0.01764 c -3.794662,-0.01723 -3.891936,-0.0206 -4.158198,-0.144253 -0.331486,-0.153941 -0.691803,-0.540386 -0.795919,-0.853634 -0.05747,-0.172898 -0.0822,-1.094063 -0.09773,-3.639496 l -0.02079,-3.408007 h -3.020688 -3.020688 l -0.04222,4.49857 c -0.02322,2.474213 -0.04562,4.866634 -0.04978,5.316491 -0.0132,1.428976 0.100575,1.6324 1.290653,2.307655 0.376542,0.213652 0.818358,0.507923 0.981815,0.653936 0.596577,0.532913 1.139323,1.470155 1.390009,2.40034 0.187962,0.697448 0.188646,2.20599 0.0013,2.908166 -0.22964,0.860775 -0.560796,1.43784 -1.184736,2.064496 -1.006375,1.010751 -2.19475,1.486297 -3.731637,1.49327 -1.597883,0.0072 -3.026749,-0.57721 -4.011487,-1.640842 -0.905037,-0.97755 -1.303909,-2.155338 -1.242552,-3.669009 0.03582,-0.883693 0.145802,-1.343759 0.499061,-2.087622 0.459253,-0.967056 0.980296,-1.533036 1.877105,-2.038992 1.171477,-0.660917 1.316129,-0.834688 1.429279,-1.716986 0.05503,-0.429071 0.05573,-0.829128 0.003,-1.694034 -0.03902,-0.639812 -0.06906,-2.798843 -0.06906,-4.963874 V 42.25929 h -3.064893 -3.064893 l 0.01654,3.377714 0.01654,3.377714 -0.136481,0.310099 c -0.167583,0.380766 -0.427197,0.639632 -0.825175,0.8228 l -0.302934,0.139423 -3.832115,0.01729 -3.832114,0.01729 v 0.148087 c 0,0.08145 -0.02972,0.55533 -0.06604,1.053071 -0.09975,1.366927 0.04384,2.046032 0.504733,2.387123 0.108606,0.08038 0.451815,0.27962 0.762686,0.442764 1.20743,0.633654 1.991077,1.659157 2.382615,3.11796 0.111983,0.417232 0.136379,0.660945 0.133015,1.32886 -0.0036,0.706108 -0.02648,0.892464 -0.167704,1.363203 -0.526989,1.756629 -1.834064,3.038179 -3.652512,3.581195 -0.659079,0.196816 -1.93587,0.257009 -2.532321,0.119398 z m 2.150831,-2.982355 c 0.932534,-0.440675 1.398878,-1.358264 1.221832,-2.404106 -0.138046,-0.81547 -0.600268,-1.480111 -1.252125,-1.800464 -0.263661,-0.129575 -0.385407,-0.148807 -0.939096,-0.148341 -0.560779,4.7e-4 -0.676904,0.01957 -0.98,0.161185 -0.765649,0.357733 -1.198443,1.006676 -1.2492,1.873087 -0.06203,1.058764 0.523223,2.069088 1.399282,2.415596 0.489176,0.193484 1.274206,0.151183 1.799307,-0.09696 z m 17.917594,0.01301 c 0.431166,-0.195622 0.871426,-0.625255 1.046655,-1.021389 0.460386,-1.04078 0.104311,-2.428137 -0.772209,-3.00872 -0.863985,-0.572281 -2.168287,-0.45607 -2.881052,0.256695 -1.165656,1.165656 -0.634721,3.41712 0.926273,3.927923 0.08331,0.02726 0.410476,0.04221 0.727042,0.03321 0.480544,-0.01365 0.637938,-0.04464 0.953291,-0.187723 z m 17.839227,0.01349 c 0.943741,-0.434511 1.447078,-1.402428 1.273626,-2.44918 -0.195837,-1.181844 -1.039689,-1.96106 -2.123729,-1.96106 -1.503824,0 -2.481388,1.140323 -2.251466,2.626324 0.144428,0.933449 0.654431,1.601986 1.447982,1.898086 0.367203,0.137017 1.238712,0.07684 1.653587,-0.11417 z M 52.367267,39.20086 c 2.28219,-0.341393 4.037543,-1.234968 5.708561,-2.905986 1.346231,-1.346231 2.19439,-2.779796 2.717829,-4.593696 0.294482,-1.020486 0.363703,-1.562818 0.36526,-2.861864 0.0017,-1.377726 -0.10513,-2.082787 -0.489402,-3.231326 -1.007023,-3.009881 -3.486004,-5.47494 -6.461924,-6.425636 -0.457884,-0.146277 -0.82406,-0.210993 -1.60555,-0.283754 -2.300556,-0.214197 -2.442724,-0.322735 -2.930423,-2.23723 -0.336949,-1.322716 -1.004885,-2.446865 -2.107165,-3.546403 -1.671907,-1.66775 -3.60128,-2.507822 -5.759564,-2.507788 -0.786203,1.3e-5 -0.967631,0.02127 -1.726724,0.202336 -0.583438,0.139165 -1.010272,0.204657 -1.367368,0.209802 -0.471084,0.0068 -0.542412,-0.0079 -0.770357,-0.158587 C 37.563804,10.611741 37.203787,10.120941 36.445553,8.8227958 35.6565,7.4718878 35.262849,6.9753814 34.369055,6.2037462 32.424102,4.524618 29.840461,3.3885419 27.142884,3.0262608 26.315689,2.9151696 24.67565,2.9167574 23.883097,3.0294167 c -2.25801,0.3209706 -4.337615,1.2297715 -6.131166,2.6793597 -0.597234,0.4826979 -1.698513,1.6190572 -2.161909,2.2307742 -1.47802,1.9510966 -2.399392,4.0802024 -2.808647,6.4902174 -0.250465,1.474937 -0.24821,3.466 0.0055,4.89742 0.07089,0.399873 0.133269,0.764784 0.138623,0.810913 0.0067,0.05782 -0.150252,0.120482 -0.505252,0.201712 -3.4264631,0.784042 -4.5064615,1.151693 -5.7085817,1.943305 -1.9566255,1.288464 -3.3613918,3.449879 -3.7688488,5.798862 -0.8402835,4.844221 2.0610373,9.61137 6.5818634,10.814636 1.4419061,0.383779 -2.005e-4,0.35556 20.2536841,0.396309 21.371195,0.043 21.694797,0.04168 22.588857,-0.09206 z"
     id="path2" />
  <path
     style="fill:#000000;fill-opacity:1;stroke:none;stroke-width:0;stroke-linecap:round;stroke-linejoin:round;stroke-miterlimit:4.8;stroke-dasharray:none"
     d="M 41.986649,26.565223 V 19.11096 l 0.287788,0.03496 c 0.158283,0.01923 0.678818,0.07267 1.156746,0.11876 0.477927,0.04609 0.878102,0.09295 0.889278,0.104123 0.08457,0.08457 0.150247,3.945432 0.150247,8.832011 v 5.818676 h -1.242029 -1.24203 z"
     id="path3" />
  <path
     style="fill:#000000;fill-opacity:1;stroke:none;stroke-width:0;stroke-linecap:round;stroke-linejoin:round;stroke-miterlimit:4.8;stroke-dasharray:none"
     d="m 29.539809,27.915366 c -0.01811,-3.357266 -0.04839,-6.453423 -0.06729,-6.880349 -0.05365,-1.211812 0.109484,-1.723012 0.608828,-1.907793 0.315046,-0.116582 1.296319,-0.124509 3.604914,-0.02912 2.268612,0.09374 3.033249,0.219182 3.968435,0.65106 1.117927,0.516271 1.926773,1.489957 2.342102,2.819418 0.124037,0.397038 0.141957,0.576776 0.141957,1.42379 0,1.150251 -0.07743,1.513371 -0.516766,2.423472 -0.488907,1.012786 -1.213061,1.74902 -2.149053,2.184902 -0.909915,0.423738 -1.687548,0.535766 -3.741215,0.538973 l -1.620677,0.0025 -1.9e-5,2.438618 -2e-5,2.438619 h -1.269134 -1.269133 z m 5.873556,-1.073589 c 0.255993,-0.04898 0.610784,-0.155593 0.788423,-0.236919 1.503989,-0.68855 1.907741,-3.046857 0.747332,-4.365151 -0.650938,-0.739504 -1.668411,-0.987242 -3.732409,-0.908779 l -1.105709,0.04203 v 2.745158 2.745157 l 0.257494,0.02319 c 0.736979,0.06638 2.607879,0.03892 3.044869,-0.04469 z"
     id="path4" />
  <path
     style="fill:#000000;fill-opacity:1;stroke:none;stroke-width:0;stroke-linecap:round;stroke-linejoin:round;stroke-miterlimit:4.8;stroke-dasharray:none;stroke-opacity:1"
     d="m 15.934327,34.102617 c -0.149952,-0.01176 -0.440398,-0.03716 -0.645435,-0.05645 l -0.372794,-0.03507 0.176687,-0.677408 c 0.386729,-1.482696 1.055015,-3.349851 2.465174,-6.887555 0.96227,-2.414073 1.238641,-3.174312 1.585817,-4.362249 0.810958,-2.774859 1.092279,-3.092216 2.673598,-3.016071 0.810279,0.03902 1.041542,0.157502 1.366565,0.700137 0.35141,0.586689 0.623111,1.304071 1.07993,2.851376 0.476421,1.613701 0.611766,1.980448 1.715751,4.649192 1.304297,3.15297 1.732873,4.36352 2.037256,5.754406 0.08713,0.398155 0.171085,0.781514 0.186561,0.85191 0.0251,0.114187 -0.0061,0.132101 -0.289007,0.166087 -0.497263,0.05973 -1.566002,0.04499 -1.818324,-0.02508 -0.125871,-0.03495 -0.324558,-0.147581 -0.441526,-0.250281 -0.414429,-0.363873 -0.881455,-1.593488 -1.148237,-3.023153 l -0.108411,-0.580964 -1.429663,-0.108311 c -1.724146,-0.130619 -2.957573,-0.109572 -3.477666,0.05935 -0.717701,0.233096 -0.977463,0.622446 -1.228791,1.841803 -0.286456,1.389781 -0.458075,1.75431 -0.934469,1.984862 -0.27965,0.135338 -0.869302,0.204534 -1.393016,0.163473 z m 7.57335,-6.141894 c 0,-0.07799 -1.812306,-5.649387 -1.849905,-5.686985 -0.01556,-0.01556 -0.03864,-0.01693 -0.05129,-0.003 -0.01265,0.01388 -0.449834,1.246048 -0.971511,2.738141 -0.521677,1.492093 -0.974138,2.78032 -1.005469,2.862727 l -0.05696,0.149829 h 1.967571 c 1.273117,0 1.967572,-0.02141 1.967572,-0.06067 z"
     id="path5" />
</svg>
