<?xml version="1.0" encoding="UTF-8" standalone="no"?>
<svg
   width="16"
   height="16"
   viewBox="0 0 16 16"
   fill="none"
   version="1.1"
   id="svg5"
   sodipodi:docname="figma.svg"
   inkscape:version="1.4 (e7c3feb1, 2024-10-09)"
   xmlns:inkscape="http://www.inkscape.org/namespaces/inkscape"
   xmlns:sodipodi="http://sodipodi.sourceforge.net/DTD/sodipodi-0.dtd"
   xmlns="http://www.w3.org/2000/svg"
   xmlns:svg="http://www.w3.org/2000/svg">
  <defs
     id="defs5" />
  <sodipodi:namedview
     id="namedview5"
     pagecolor="#505050"
     bordercolor="#eeeeee"
     borderopacity="1"
     inkscape:showpageshadow="0"
     inkscape:pageopacity="0"
     inkscape:pagecheckerboard="0"
     inkscape:deskcolor="#505050"
     inkscape:zoom="35.563577"
     inkscape:cx="-4.9629429"
     inkscape:cy="4.8504682"
     inkscape:window-width="2560"
     inkscape:window-height="1440"
     inkscape:window-x="0"
     inkscape:window-y="59"
     inkscape:window-maximized="0"
     inkscape:current-layer="svg5" />
  <g
     id="g5"
     transform="translate(2.5,-0.5)">
    <path
       d="m 5.48511,8.21021 c 0,-1.31283 1.08378,-2.37677 2.42,-2.37677 H 8.25514 C 8.26467,5.83375 8.27517,5.83313 8.28502,5.83313 9.78433,5.83313 11,7.0276 11,8.5 c 0,1.47241 -1.21567,2.6666 -2.71498,2.6666 -0.00985,0 -0.02035,-3e-4 -0.0302,-3e-4 l -0.34971,3e-4 c -1.33622,0 -2.42,-1.0646 -2.42,-2.37711 z"
       fill="#00b6ff"
       id="path1" />
    <path
       d="M 0,13.8338 C 0,12.361 1.21572,11.1666 2.71503,11.1666 l 2.77003,3e-4 v 2.6394 C 5.48506,15.2943 4.24327,16.5 2.72838,16.5 1.22939,16.5 0,15.3062 0,13.8338 Z"
       fill="#24cb71"
       id="path2" />
    <path
       d="M 5.48511,0.500312 V 5.83344 H 8.25514 C 8.26467,5.83312 8.27517,5.83375 8.28502,5.83375 9.78433,5.83375 11,4.63928 11,3.16687 11,1.69416 9.78433,0.5 8.28502,0.5 c -0.00985,0 -0.02035,3.12e-4 -0.0302,3.12e-4 z"
       fill="#ff7237"
       id="path3" />
    <path
       d="M 0,3.16656 C 0,4.63927 1.21572,5.83343 2.71503,5.83343 H 5.48506 V 0.500305 H 2.71471 C 1.21572,0.500305 0,1.69415 0,3.16656 Z"
       fill="#ff3737"
       id="path4" />
    <path
       d="M 0,8.49999 C 0,9.9727 1.21572,11.1669 2.71503,11.1669 H 5.48506 V 5.83374 H 2.71471 C 1.21572,5.83374 0,7.02759 0,8.49999 Z"
       fill="#874fff"
       id="path5" />
  </g>
</svg>
