<svg width="64" height="65" viewBox="0 0 64 65" fill="none" xmlns="http://www.w3.org/2000/svg">
<path d="M0 0.383633V3.93919V64.3836H64V0.383633H0ZM7.11111 7.49474H56.8889V57.2725H7.11111V7.49474ZM14.2222 25.2725V30.4322H21.5972V53.717H27.6667V30.4322H35.1944V25.2725H14.2222ZM44.6389 25.342C40.4282 25.6491 36.2222 27.4119 36.2222 33.2447C36.2222 41.8243 47.7778 41.8207 47.7778 45.6892C47.7778 46.0554 47.9393 48.7239 43.8611 48.7239C39.7829 48.7239 36.375 46.1614 36.375 46.1614V52.3906C36.375 52.3906 54.1597 58.139 54.1597 45.1684C54.1597 36.7452 42.4931 37.1657 42.4931 32.9809C42.4931 31.3595 43.6509 29.842 46.8403 29.842C50.0296 29.842 52.8542 31.7239 52.8542 31.7239L53.0625 26.1822C53.0625 26.1822 48.8496 25.0349 44.6389 25.342Z" fill="white"/>
</svg>
