<?xml version="1.0" encoding="UTF-8" standalone="no"?>
<svg
   width="16"
   height="16"
   viewBox="0 0 16 16"
   fill="none"
   version="1.1"
   id="svg2"
   sodipodi:docname="icon_nodejs_small.svg"
   inkscape:version="1.4 (e7c3feb1, 2024-10-09)"
   xmlns:inkscape="http://www.inkscape.org/namespaces/inkscape"
   xmlns:sodipodi="http://sodipodi.sourceforge.net/DTD/sodipodi-0.dtd"
   xmlns="http://www.w3.org/2000/svg"
   xmlns:svg="http://www.w3.org/2000/svg">
  <sodipodi:namedview
     id="namedview2"
     pagecolor="#505050"
     bordercolor="#eeeeee"
     borderopacity="1"
     inkscape:showpageshadow="0"
     inkscape:pageopacity="0"
     inkscape:pagecheckerboard="0"
     inkscape:deskcolor="#505050"
     inkscape:zoom="8.9590928"
     inkscape:cx="18.249616"
     inkscape:cy="30.750881"
     inkscape:window-width="2560"
     inkscape:window-height="1440"
     inkscape:window-x="0"
     inkscape:window-y="59"
     inkscape:window-maximized="0"
     inkscape:current-layer="svg2" />
  <g
     clip-path="url(#clip0_362_4769)"
     id="g2"
     transform="matrix(1.0210183,0,0,1.0210183,0.82762774,-0.74470012)">
    <path
       d="M 7.02464,16.4 C 6.81149,16.4 6.61253,16.3424 6.42757,16.2416 L 4.53659,15.1044 C 4.25225,14.946 4.39442,14.8884 4.4796,14.8596 4.86352,14.73 4.9347,14.7012 5.33281,14.4708 5.3754,14.442 5.43219,14.4564 5.47479,14.4852 l 1.45047,0.8782 c 0.05679,0.0288 0.12798,0.0288 0.17057,0 l 5.67297,-3.3256 c 0.057,-0.0288 0.0854,-0.0862 0.0854,-0.1582 V 5.24277 c 0,-0.072 -0.0284,-0.1296 -0.0852,-0.1584 L 7.09583,1.77317 c -0.05679,-0.0288 -0.12817,-0.0288 -0.17057,0 l -5.67315,3.3112 c -0.05718,0.0288 -0.08558,0.1008 -0.08558,0.1584 v 6.63683 c 0,0.0574 0.02859,0.1294 0.08538,0.1582 l 1.54986,0.907 c 0.83882,0.432 1.3649,-0.072 1.3649,-0.5758 V 5.81857 c 0,-0.0864 0.07099,-0.1728 0.17057,-0.1728 h 0.72524 c 0.08518,0 0.17056,0.072 0.17056,0.1728 V 12.369 c 0,1.1374 -0.61127,1.7996 -1.67783,1.7996 -0.32693,0 -0.58288,0 -1.30792,-0.36 L 0.754222,12.9448 C 0.572684,12.838 0.42199,12.6848 0.317236,12.5003 0.212481,12.3159 0.157344,12.1068 0.157349,11.894 V 5.25717 C 0.15733,5.04428 0.21248,4.83512 0.317272,4.65066 0.422064,4.4662 0.572816,4.31291 0.754419,4.20617 L 6.42738,0.88057 c 0.35572,-0.2016 0.83901,-0.2016 1.19453,0 l 5.67299,3.3256 c 0.1816,0.10672 0.3324,0.25999 0.4372,0.44445 0.1049,0.18447 0.16,0.39364 0.16,0.60655 V 11.894 c 0,0.2128 -0.0552,0.422 -0.16,0.6064 -0.1048,0.1844 -0.2556,0.3377 -0.4372,0.4444 L 7.62191,16.2704 C 7.45135,16.3424 7.238,16.4 7.02464,16.4 Z"
       fill="#5fa04e"
       id="path1" />
    <path
       d="m 8.78786,11.8364 c -2.48845,0 -3.00014,-1.1518 -3.00014,-2.1308 0,-0.0864 0.07099,-0.1728 0.17056,-0.1728 h 0.73944 c 0.08538,0 0.15637,0.0576 0.15637,0.144 0.11377,0.763 0.4407,1.1374 1.94797,1.1374 1.19434,0 1.70604,-0.2736 1.70604,-0.9214 0,-0.3742 -0.142,-0.648 -2.00477,-0.835 C 6.95347,8.8994 5.98687,8.5538 5.98687,7.3014 c 0,-1.166 0.96679,-1.857 2.58764,-1.857 1.81999,0 2.71559,0.6334 2.82959,2.0154 0,0.0432 -0.0144,0.0864 -0.0428,0.1296 -0.0284,0.0288 -0.071,0.0576 -0.1138,0.0576 H 10.4939 C 10.4574,7.64577 10.4224,7.63242 10.3941,7.609 10.3659,7.58558 10.346,7.5534 10.3375,7.5174 10.167,6.7254 9.72625,6.4664 8.56031,6.4664 c -1.30811,0 -1.46448,0.4608 -1.46448,0.8062 0,0.4176 0.18476,0.5472 1.94797,0.7774 1.7488,0.2304 2.5732,0.5616 2.5732,1.7996 0,1.267 -1.0377,1.9868 -2.82914,1.9868 z"
       fill="#5fa04e"
       id="path2" />
  </g>
  <defs
     id="defs2">
    <clipPath
       id="clip0_362_4769">
      <rect
         width="14"
         height="16"
         fill="#ffffff"
         transform="translate(0,0.5)"
         id="rect2"
         x="0"
         y="0" />
    </clipPath>
  </defs>
</svg>
