<?xml version="1.0" encoding="UTF-8" standalone="no"?>
<svg
   height="500"
   viewBox="0 -960 11111.121 10000"
   width="555.55603"
   fill="#e3e3e3"
   version="1.1"
   id="svg1"
   sodipodi:docname="icon_commitment.svg"
   inkscape:version="1.4 (e7c3feb1, 2024-10-09)"
   xmlns:inkscape="http://www.inkscape.org/namespaces/inkscape"
   xmlns:sodipodi="http://sodipodi.sourceforge.net/DTD/sodipodi-0.dtd"
   xmlns="http://www.w3.org/2000/svg"
   xmlns:svg="http://www.w3.org/2000/svg">
  <defs
     id="defs1" />
  <sodipodi:namedview
     id="namedview1"
     pagecolor="#505050"
     bordercolor="#eeeeee"
     borderopacity="1"
     inkscape:showpageshadow="0"
     inkscape:pageopacity="0"
     inkscape:pagecheckerboard="0"
     inkscape:deskcolor="#505050"
     inkscape:zoom="0.70710678"
     inkscape:cx="410.12193"
     inkscape:cy="159.80613"
     inkscape:window-width="2560"
     inkscape:window-height="1387"
     inkscape:window-x="0"
     inkscape:window-y="84"
     inkscape:window-maximized="0"
     inkscape:current-layer="svg1" />
  <path
     d="m 5611.1159,9040.0001 q -236.1111,0 -402.7777,-163.75 -166.6668,-163.6111 -166.6668,-405.6945 0,-97.2221 41.6668,-201.3889 41.6666,-104.1666 125,-187.5 L 7777.7829,5512.2223 7486.1157,5220.5556 4920.4214,7790.0001 q -83.6111,83.3334 -181.25,125 -97.6388,41.6666 -209.1666,41.6666 -237.0834,0 -397.3611,-159.7222 -160.4167,-159.7222 -160.4167,-395.8333 0,-138.8889 41.6667,-229.1667 41.6666,-90.2778 111.1111,-159.7222 L 6694.4492,4442.7779 6402.7826,4151.1112 3833.3382,6706.6667 q -83.3334,83.3334 -180.5556,125 -97.2223,41.6668 -222.2223,41.6668 -222.2221,0 -388.8889,-166.6668 -166.6666,-166.6666 -166.6666,-388.8888 0,-111.1112 41.6666,-208.3333 41.6668,-97.2223 125,-180.5556 L 5611.1159,3359.4446 5319.4492,3067.7779 2763.8937,5637.2223 q -69.4445,69.4444 -166.6667,111.1112 -97.2222,41.6666 -236.1111,41.6666 -236.1111,0 -395.8333,-155.6945 -159.7223,-155.6944 -159.7223,-385.9721 0,-111.1112 41.6667,-208.3334 41.6667,-97.2222 125,-180.5555 l 3097.2222,-3097.2223 1763.889,1763.8889 q 152.7777,152.7778 340.2777,256.9444 187.4998,104.1667 451.3889,104.1667 444.4445,0 750,-284.7222 305.5555,-284.7222 305.5555,-770.8334 0,-194.4444 -76.3891,-381.9444 -76.3883,-187.5 -256.9445,-368.0556 l -2486.1108,-2486.11114 83.3333,-97.22188 q 236.1111,-222.22265 527.7778,-340.27812 291.6667,-118.05547 583.3333,-118.05547 361.1109,0 666.6664,118.05547 305.5562,118.05547 555.5562,368.05547 L 10625.005,1887.2223 q 250,250 368.055,555.5556 118.056,305.5556 118.056,708.3333 0,277.7778 -125,562.5 -125,284.7223 -361.111,520.8334 L 6000.0048,8873.3335 q -111.1111,111.111 -194.4445,138.8888 -83.3333,27.7778 -194.4444,27.7778 z m -4375,-4055.5555 -750,-750 Q 250.0048,4012.2223 125.0048,3706.6667 0.00480167,3401.1112 0.00480167,3067.7779 q 0,-361.1112 138.88890833,-666.6667 138.88891,-305.5556 347.22219,-513.8889 L 2833.3382,-473.88897 q 222.2221,-222.22188 527.7777,-354.16641 305.5555,-131.94453 597.2223,-131.94453 375,0 666.6666,104.16641 291.6666,104.16718 569.4444,381.94453 l 2847.222,2847.22247 q 125,125 173.6117,236.1111 48.611,111.111 48.611,222.2221 0,277.7779 -180.5555,458.3334 -180.5555,180.5555 -458.3336,180.5555 -125,0 -256.9445,-62.5 -131.9446,-62.5 -256.9444,-187.5 L 5055.5603,1165.0001 Z"
     id="path1"
     style="fill:#ddb444;fill-opacity:1;stroke-width:13.8889" />
</svg>
