<?xml version="1.0" encoding="UTF-8" standalone="no"?>
<svg
   width="16"
   height="16"
   viewBox="0 0 16 16"
   fill="none"
   version="1.1"
   id="svg1"
   sodipodi:docname="icon_correct.svg"
   inkscape:version="1.4 (e7c3feb1, 2024-10-09)"
   xmlns:inkscape="http://www.inkscape.org/namespaces/inkscape"
   xmlns:sodipodi="http://sodipodi.sourceforge.net/DTD/sodipodi-0.dtd"
   xmlns="http://www.w3.org/2000/svg"
   xmlns:svg="http://www.w3.org/2000/svg">
  <defs
     id="defs1" />
  <sodipodi:namedview
     id="namedview1"
     pagecolor="#505050"
     bordercolor="#eeeeee"
     borderopacity="1"
     inkscape:showpageshadow="0"
     inkscape:pageopacity="0"
     inkscape:pagecheckerboard="0"
     inkscape:deskcolor="#505050"
     inkscape:zoom="7.0436719"
     inkscape:cx="62.396432"
     inkscape:cy="68.785146"
     inkscape:window-width="2560"
     inkscape:window-height="1440"
     inkscape:window-x="0"
     inkscape:window-y="59"
     inkscape:window-maximized="0"
     inkscape:current-layer="svg1" />
  <path
     d="M 6.8800012,11.679996 12.52,6.0399959 11.400001,4.919996 6.8800012,9.4399954 4.6000015,7.1599957 3.4800017,8.2799956 Z m 1.1199999,4.319999 c -1.1066666,0 -2.1466664,-0.210001 -3.1199996,-0.630001 -0.9733332,-0.42 -1.8199998,-0.99 -2.5400023,-1.709999 C 1.6199993,12.939994 1.0499993,12.093329 0.6299994,11.119996 0.20999944,10.146663 0,9.1066622 0,7.9999956 0,6.8933291 0.20999944,5.8533293 0.6299994,4.879996 1.0499993,3.9066628 1.6199993,3.0599963 2.3399992,2.3400044 3.0600017,1.6200045 3.9066683,1.0500046 4.8800015,0.6300046 5.8533347,0.21000467 6.8933345,5.5e-6 8.0000011,5.5e-6 c 1.1066665,0 2.1466659,0.20999917 3.1199999,0.6299991 0.973333,0.42 1.819999,0.9899999 2.539999,1.7099998 0.72,0.7199919 1.29,1.5666584 1.71,2.5399916 0.42,0.9733333 0.63,2.0133331 0.63,3.1199996 0,1.1066666 -0.21,2.1466674 -0.63,3.1200004 -0.42,0.973333 -0.99,1.819998 -1.71,2.539999 -0.72,0.72 -1.566666,1.289999 -2.539999,1.71 -0.973334,0.42 -2.0133334,0.63 -3.1199999,0.63 z"
     fill="#64b749"
     id="path1"
     style="stroke-width:0.266667" />
</svg>
