<?xml version="1.0" encoding="UTF-8" standalone="no"?>
<!-- Created with Inkscape (http://www.inkscape.org/) -->

<svg
   width="130.86505mm"
   height="177.9315mm"
   viewBox="0 0 130.86505 177.9315"
   version="1.1"
   id="svg1"
   xml:space="preserve"
   sodipodi:docname="leondevs_logo.svg"
   inkscape:version="1.4 (e7c3feb1, 2024-10-09)"
   xmlns:inkscape="http://www.inkscape.org/namespaces/inkscape"
   xmlns:sodipodi="http://sodipodi.sourceforge.net/DTD/sodipodi-0.dtd"
   xmlns="http://www.w3.org/2000/svg"
   xmlns:svg="http://www.w3.org/2000/svg"><sodipodi:namedview
     id="namedview1"
     pagecolor="#505050"
     bordercolor="#eeeeee"
     borderopacity="1"
     inkscape:showpageshadow="0"
     inkscape:pageopacity="0"
     inkscape:pagecheckerboard="0"
     inkscape:deskcolor="#505050"
     inkscape:document-units="mm"
     inkscape:zoom="1.2814034"
     inkscape:cx="276.6498"
     inkscape:cy="226.70456"
     inkscape:window-width="2560"
     inkscape:window-height="1440"
     inkscape:window-x="0"
     inkscape:window-y="59"
     inkscape:window-maximized="0"
     inkscape:current-layer="layer1"><inkscape:page
       x="0"
       y="0"
       width="130.86505"
       height="177.9315"
       id="page2"
       margin="0"
       bleed="0" /></sodipodi:namedview><defs
     id="defs1" /><g
     inkscape:label="Layer 1"
     inkscape:groupmode="layer"
     id="layer1"
     transform="translate(-44.115006,-71.953781)"><path
       style="display:inline;fill:#dab042;fill-opacity:1;fill-rule:evenodd;stroke:none;stroke-width:0;stroke-dasharray:none;stroke-opacity:1"
       d="m 87.366007,249.2948 c -0.381754,-0.38392 -0.187937,-0.63103 1.190625,-1.51804 8.698804,-5.59708 12.467448,-17.59735 8.906031,-28.35896 -0.288949,-0.87312 -1.133273,-2.8083 -1.876275,-4.3004 -1.104068,-2.21719 -1.41813,-2.65712 -1.718773,-2.40761 -0.517262,0.42929 -6.186583,0.0977 -9.213587,-0.53896 -8.862069,-1.8638 -15.247558,-6.23458 -24.974476,-17.09469 -5.741569,-6.41047 -7.979807,-9.52078 -10.438062,-14.50497 -2.878525,-5.83631 -4.326906,-11.3589 -4.592158,-17.50962 -0.145229,-3.36758 0.185404,-7.34075 0.730089,-8.77338 0.21311,-0.56052 0.324787,-0.62086 0.649825,-0.3511 0.21587,0.17915 0.39249,0.70004 0.39249,1.15752 0,1.1486 1.631472,7.48831 2.628981,10.21592 2.050872,5.60795 5.815918,11.97835 10.887411,18.42135 8.96116,11.38457 14.550122,16.77928 23.315319,22.50496 2.564037,1.6749 10.202748,5.78993 10.393583,5.59909 0.198554,-0.19855 -3.541438,-4.89182 -5.454714,-6.84505 -1.072933,-1.09534 -4.808288,-4.50144 -8.300788,-7.56911 C 67.307872,186.36878 61.777897,179.91578 57.386963,171.16089 55.784088,167.96498 53.85298,162.577 53.061638,159.0928 c -1.875009,-8.25547 -1.325161,-16.82951 1.56456,-24.39693 1.097254,-2.87341 2.437549,-4.8903 5.08547,-7.65265 2.3187,-2.41891 7.472586,-6.71187 8.057884,-6.71187 0.4678,0 0.439051,0.86048 -0.06879,2.05902 -1.248124,2.94562 -2.73365,8.43918 -3.592918,13.28681 -0.226791,1.27946 -0.34907,4.14611 -0.344224,8.06979 0.0065,5.25922 0.08638,6.44835 0.588368,8.75865 2.981311,13.72077 10.752252,23.59559 24.6691,35.54449 16.370202,14.05533 22.620442,22.01162 22.620442,35.9979 0,5.51476 -0.19069,6.75453 -1.58694,10.31731 -2.79609,7.13478 -9.60784,12.79971 -17.330769,14.41299 -2.354399,0.49182 -5.117479,0.75818 -5.357812,0.51649 z m 5.490104,-1.33142 c 26.177149,-6.42977 -0.873121,0.21446 4e-6,0 z M 45.711225,155.65322 c -1.596219,-83.699439 -1.596219,-83.699439 0,0 z m 67.561905,80.38924 c -0.30588,-0.30588 -0.21045,-0.48034 1.28882,-2.35609 3.56446,-4.45956 6.45967,-10.7723 7.69678,-16.78211 0.65876,-3.20023 0.59964,-8.88814 -0.12383,-11.91421 -1.8579,-7.77103 -6.08868,-14.48075 -12.77507,-20.26037 -1.36444,-1.17941 -5.21924,-4.20171 -8.56622,-6.71624 C 92.946561,172.1181 89.843698,169.5697 86.142258,165.98021 75.546844,155.70526 70.234236,144.40626 70.234236,132.14659 c 0,-7.02687 1.941909,-14.57532 4.969279,-19.3162 1.295727,-2.02913 3.994808,-5.19904 4.426811,-5.19904 0.520233,0 0.499265,0.64063 -0.12557,3.83645 -2.109333,10.78855 -0.857216,20.71127 3.856189,30.55938 4.418719,9.23239 11.326919,16.74909 23.230325,25.27653 11.16336,7.99729 14.77763,10.95596 18.08702,14.80622 4.66777,5.43064 7.34975,10.55748 8.8461,16.91013 0.84255,3.57695 0.8366,10.74091 -0.0115,13.87706 -2.4173,8.93857 -6.95898,15.30155 -14.463,20.26295 -1.77442,1.17319 -5.16774,3.05878 -5.50461,3.05878 -0.0526,0 -0.17511,-0.0794 -0.27212,-0.17639 z m 24.06602,-24.37641 c -0.0718,-0.11612 0.1632,-1.25396 0.52215,-2.52852 2.76922,-9.83291 1.43085,-19.48969 -3.81831,-27.55024 -1.77237,-2.72162 -6.80953,-7.65304 -9.75446,-9.54967 -1.33883,-0.86225 -3.52972,-2.27584 -4.86863,-3.1413 -2.7851,-1.80025 -6.05858,-4.87443 -6.05858,-5.6897 0,-0.29807 0.0616,-0.54194 0.1368,-0.54194 16.98136,3.74654 31.9193,11.57646 32.93612,31.4968 0,6.28262 -2.21233,11.77151 -6.42058,15.92976 -1.69891,1.67873 -2.36712,2.07218 -2.67451,1.57481 z M 114.68424,163.9962 c -70.569234,-92.042419 -70.569234,-92.042419 0,0 z m 34.8401,29.95546 c 0.33501,-1.28444 0.23725,-11.43961 -0.13435,-13.95677 -1.37739,-9.33004 -4.5329,-16.03118 -10.50819,-22.31543 -2.9804,-3.13451 -3.02621,-3.56357 -0.2903,-2.71853 10.39016,3.2092 16.8468,12.48694 16.83544,24.19136 -0.005,5.01923 -1.45614,9.86348 -4.27515,14.2702 -0.93222,1.45726 -1.95636,1.79026 -1.62745,0.52917 z m -11.4605,-38.35061 c -93.948834,-83.647269 -93.948834,-83.647269 0,0 z m 1.69627,16.19896 c -4.57522,-4.44631 -8.80657,-7.28435 -13.99489,-9.38659 -6.77822,-2.74645 -11.5912,-5.6954 -14.42811,-8.84023 -4.86497,-5.39301 -7.22898,-10.92176 -8.04802,-18.82205 -0.59468,-5.73616 0.54958,-12.08809 3.0927,-17.16802 3.77881,-7.54822 10.09452,-13.40251 17.47948,-16.20241 2.33113,-0.88382 6.77358,-1.687152 9.32248,-1.6858 5.59378,0.003 13.51654,2.33515 15.99286,4.70773 0.56242,0.53886 1.35343,1.70676 1.7578,2.59534 0.41031,0.90164 1.06919,1.85159 1.49096,2.14964 0.41566,0.29373 5.09651,2.6946 10.40189,5.33528 5.30539,2.64067 9.9344,5.06661 10.28671,5.39098 0.70714,0.65107 1.3661,2.00715 1.3661,2.81132 0,1.4505 -1.6222,1.65915 -7.36838,0.94777 -2.66947,-0.33049 -3.37792,-0.34197 -3.95761,-0.0641 -1.59642,0.76515 -0.95008,1.82427 2.07311,3.39711 1.10826,0.57658 2.42315,1.46941 2.92197,1.98406 0.88391,0.91197 0.90695,0.99116 0.90695,3.11767 0,1.96281 -0.0915,2.36216 -0.91085,3.97646 -1.59184,3.13617 -5.21317,5.96959 -8.87873,6.94695 -1.79848,0.47954 -4.80002,0.44934 -6.30488,-0.0634 -0.69884,-0.23811 -1.74258,-0.9111 -2.39215,-1.5424 -1.48988,-1.44801 -2.09961,-3.22314 -2.09328,-6.09428 0.007,-3.21864 0.87016,-5.6379 2.94994,-8.26903 l 1.06121,-1.34252 -1.24063,0.34043 c -0.68235,0.18724 -2.05918,0.71826 -3.05964,1.18005 -6.64581,3.06756 -12.15276,2.69099 -16.01624,-1.0952 -4.05944,-3.97822 -4.87178,-9.29948 -2.20737,-14.45929 0.84788,-1.64197 2.89327,-4.01922 4.42161,-5.139 l -0.38628,-0.60313 c -8.01355,0.99149 -15.24688,6.0344 -18.78816,13.09868 -1.89778,3.78576 -2.64329,7.13269 -2.64242,11.86298 5.5e-4,3.02136 0.11073,4.0382 0.66473,6.13515 2.04654,7.74632 6.72187,13.06749 15.60647,17.76232 4.57994,2.42014 6.63512,4.15774 9.19009,7.76997 1.59994,2.262 3.41739,5.8132 4.60394,8.99583 0.95349,2.55753 1.08177,3.31327 0.55962,3.29696 -0.1819,-0.006 -1.72674,-1.367 -3.43298,-3.02517 z m 6.87389,-55.04365 c -3.17801,-1.16144 -5.12309,-2.14468 -5.75941,-2.91139 -0.66032,-0.79564 -2.48025,-1.52028 -4.15601,-1.65479 -1.08627,-0.0872 -1.66143,-0.24842 -1.66143,-0.46571 0,-1.01744 6.47748,-1.87763 8.29425,-1.10145 0.45854,0.1959 1.08554,0.89051 1.60134,1.774 0.62502,1.07056 1.41496,1.8691 3.00681,3.03953 1.24573,0.91594 2.16327,1.78338 2.16897,2.05053 0.0124,0.57983 0.19733,0.6185 -3.49452,-0.73072 z m 8.53149,40.90492 c -0.55615,-0.15819 -0.64807,-0.32373 -0.57735,-1.0397 0.11125,-1.12634 -0.35471,-2.47728 -1.094,-3.1718 -0.32871,-0.30881 -2.07035,-1.15531 -3.8703,-1.88111 -4.35787,-1.75722 -8.48127,-4.47518 -8.48127,-5.59045 0,-0.61983 0.37141,-0.6389 1.88496,-0.0968 1.75725,0.6294 5.38773,1.16304 7.94749,1.1682 5.26109,0.0106 9.57834,-1.50908 14.05029,-4.94573 0.83899,-0.64476 1.72662,-1.13355 1.9725,-1.08619 0.77963,0.15014 1.8847,2.11472 2.35375,4.18446 0.36822,1.6248 0.39849,2.28394 0.16708,3.63759 -0.92945,5.43688 -5.76687,9.12355 -11.85652,9.03604 -1.00934,-0.0145 -2.13283,-0.11105 -2.49663,-0.21453 z M 46.25489,137.59541 c 0.385389,-4.5464 2.476417,-10.62092 5.087882,-14.7805 4.061485,-6.46919 9.556951,-11.31504 16.642506,-14.67521 2.980412,-1.41339 7.257306,-2.8896 8.371797,-2.8896 0.95693,0 0.869366,0.22691 -1.327308,3.43958 -2.822288,4.12764 -3.128173,4.45169 -5.158861,5.46528 -6.144688,3.06703 -12.890927,10.21934 -20.543991,21.78058 -1.350867,2.04072 -2.63381,3.71039 -2.850983,3.71039 -0.331078,0 -0.366783,-0.33123 -0.221042,-2.05052 z m 47.249844,-11.90625 c -4.094513,-3.6848 -6.347823,-6.50426 -8.193877,-10.25261 -1.806692,-3.66842 -2.199336,-5.53479 -2.03168,-9.65729 0.151107,-3.71558 0.577914,-5.5986 1.9084,-8.419608 1.956736,-4.148835 5.016,-7.842558 8.407851,-10.151551 1.983356,-1.350163 5.482289,-3.013327 7.330472,-3.484429 l 1.45521,-0.370932 -1.5875,-0.229968 c -2.768156,-0.400999 -10.326421,-0.243744 -12.832291,0.266985 -2.9813,0.607629 -6.763955,1.845578 -9.495855,3.107708 -3.676137,1.698365 -3.89029,1.278091 -0.875041,-1.717256 4.71938,-4.688231 10.606206,-7.902911 17.352912,-9.476082 3.229716,-0.753093 10.825165,-0.814056 14.052355,-0.112788 7.09493,1.541722 12.28163,4.406529 15.74169,8.694709 2.51582,3.117943 4.49894,8.280624 4.49894,11.712129 0,1.47735 -0.76759,1.190135 -1.85181,-0.692908 -2.28898,-3.975431 -6.36555,-7.559134 -10.19419,-8.961689 l -0.78629,-0.288043 0.92604,0.732915 c 3.07215,2.431451 5.52651,5.672104 6.7424,8.902415 1.08121,2.872515 0.74402,3.338438 -1.06631,1.473413 -4.29952,-4.429428 -12.40593,-6.759964 -18.67436,-5.368749 -6.612885,1.467661 -11.11102,5.955347 -12.82603,12.796229 -0.690225,2.75319 -0.701023,9.07244 -0.02046,11.97336 0.650482,2.7727 1.992095,6.11344 3.461997,8.62069 0.668853,1.14089 1.216097,2.15317 1.216097,2.24952 0,0.57605 -1.195148,-0.0291 -2.658669,-1.34617 z m -9.100968,-23.76677 c -40.28876,-29.968609 -40.28876,-29.968609 0,0 z m 16.355274,12.62849 c -1.309984,-0.94894 -3.177187,-3.05469 -3.815717,-4.3032 -0.268783,-0.52554 -0.634334,-1.74593 -0.812334,-2.71198 -0.834737,-4.53027 1.552648,-9.13351 5.806471,-11.195737 1.31305,-0.636559 1.81817,-0.728675 4.01553,-0.732288 2.15422,-0.0035 2.72359,0.09375 3.98293,0.680562 3.01472,1.404777 4.69101,3.784683 4.95151,7.029883 0.11332,1.41177 0.0642,1.68292 -0.33245,1.83513 -0.30622,0.11751 -0.55615,0.0165 -0.73067,-0.29539 -0.56039,-1.00135 -2.19133,-2.57927 -3.19537,-3.0915 -1.48166,-0.75588 -4.17689,-0.76708 -5.61599,-0.0233 -2.28921,1.1831 -4.02912,3.89215 -4.27824,6.66126 -0.10484,1.16535 0.0163,1.89368 0.57561,3.46039 0.85925,2.40694 1.08251,3.43958 0.74364,3.43958 -0.1402,0 -0.72292,-0.33902 -1.29492,-0.75338 z m -45.341501,-2.19257 c 0,-0.62777 2.370184,-5.26667 3.779709,-7.39761 6.159063,-9.311323 16.200533,-15.486792 27.242687,-16.754152 1.074759,-0.123355 1.254328,-0.07792 1.239904,0.313714 -0.0093,0.251878 -0.562136,0.912146 -1.228576,1.467263 -2.530614,2.1079 -4.552296,5.211625 -5.485349,8.421217 l -0.424846,1.461417 -2.706035,0.990601 c -5.645872,2.06679 -14.449356,6.73926 -19.860309,10.5409 -1.770165,1.24369 -2.557185,1.53811 -2.557185,0.95665 z M 135.36979,96.256662 c -0.91946,-0.10438 -1.84403,-0.362067 -2.0546,-0.572638 -0.21057,-0.210571 -0.56583,-1.431094 -0.78945,-2.712273 -1.3499,-7.733734 -6.33259,-13.844247 -15.48229,-18.986662 -0.65051,-0.365611 -1.0363,-0.774012 -1.0363,-1.097055 0,-0.472132 0.13013,-0.4999 1.57601,-0.336317 7.51947,0.850732 13.59853,3.992544 17.1932,8.885879 1.81804,2.474849 2.53931,3.825381 3.31261,6.20262 0.70978,2.181968 1.183,6.803859 0.83755,8.180253 -0.19431,0.774191 -0.37942,0.796892 -3.55673,0.436193 z"
       id="path14"
       sodipodi:nodetypes="ssssscssssssssssssssssscssssssssssssccssssssssssssssscsssssssssssssssssssscsssscssssscssssssscssscssscscsssssssssssscccssssssscsssssssssssssssssssssssssssssscsssssssssscsssssssssssscssscssscccscsccscscsscssssscsssssss" /></g></svg>
